<svg width="140" height="39" viewBox="0 0 140 39" fill="none" xmlns="http://www.w3.org/2000/svg">
<path d="M37.9328 0.134995H0V6.585H36.0452C37.0929 6.585 37.9238 7.515 37.9238 8.665V30.355C37.9148 31.505 37.0748 32.425 36.0362 32.425H7.71301C6.67438 32.425 5.8254 31.495 5.8254 30.345V21.585C5.8254 20.435 6.67438 19.505 7.71301 19.505H32.0804V13.055H5.81637C2.61014 13.055 0 15.935 0 19.485V32.445C0 35.995 2.60111 38.875 5.81637 38.875H37.9419C41.1571 38.875 43.7492 35.995 43.7492 32.445V6.56499C43.7492 3.01499 41.1481 0.125 37.9419 0.125" fill="#159BD7"/>
<path d="M59.5378 20.2452H63.4847L61.5338 13.7652H61.4796L59.5469 20.2452H59.5378ZM65.282 9.28516L69.8249 24.3352C70.3668 26.1752 70.7461 26.5952 71.6944 26.5952H72.6156V29.2452H62.6899V26.5952H63.5027C64.3156 26.5952 64.9929 26.4752 64.9929 26.1452C64.9929 25.8352 64.9658 25.5052 64.8575 25.0552L64.2885 22.8952H58.7431L58.4089 24.1052C58.1108 25.1552 58.0025 25.6052 58.0025 26.0252C58.0025 26.5152 58.9598 26.6052 59.7004 26.6052H60.4862V29.2552H52.4932V26.6052H53.4234C54.3717 26.6052 54.7511 26.1852 55.302 24.3452L59.8449 9.29516H65.282V9.28516Z" fill="black"/>
<path d="M78.7212 22.1934C78.7212 25.2734 79.3444 27.1034 80.8617 27.1034C82.379 27.1034 83.0113 25.2734 83.0113 22.1934C83.0113 19.1134 82.3971 17.2934 80.8617 17.2934C79.3264 17.2934 78.7212 19.1334 78.7212 22.1934ZM74.1964 12.9834C74.1964 12.1334 74.0067 11.6834 73.221 11.6834H71.9746V9.27344H78.7212V16.7634C79.7238 15.5034 81.0062 14.6834 82.2255 14.6834C86.3078 14.6834 87.8251 18.2134 87.8251 22.1834C87.8251 26.1534 86.3078 29.6834 82.2255 29.6834C80.5095 29.6834 78.9922 29.0234 78.0439 27.3634L77.2581 29.2334H74.2054V12.9734L74.1964 12.9834Z" fill="black"/>
<path d="M93.9742 22.1934C93.9742 25.2734 94.6064 27.1034 96.1237 27.1034C97.641 27.1034 98.2732 25.2734 98.2732 22.1934C98.2732 19.1134 97.65 17.2934 96.1237 17.2934C94.5973 17.2934 93.9742 19.1334 93.9742 22.1934ZM89.4584 12.9834C89.4584 12.1334 89.2687 11.6834 88.4829 11.6834H87.2275V9.27344H93.9742V16.7634C94.9857 15.5034 96.2592 14.6834 97.4784 14.6834C101.561 14.6834 103.087 18.2134 103.087 22.1834C103.087 26.1534 101.561 29.6834 97.4784 29.6834C95.7624 29.6834 94.2451 29.0234 93.2878 27.3634L92.493 29.2334H89.4493V12.9734L89.4584 12.9834Z" fill="black"/>
<path d="M109.202 22.1953C109.202 25.7453 109.771 27.2853 111.405 27.2853C113.04 27.2853 113.6 25.7453 113.6 22.1953C113.6 18.6453 113.031 17.1053 111.405 17.1053C109.78 17.1053 109.202 18.6353 109.202 22.1953ZM118.423 22.1953C118.423 27.0153 115.46 29.6953 111.405 29.6953C107.35 29.6953 104.388 27.0153 104.388 22.1953C104.388 17.3753 107.35 14.6953 111.405 14.6953C115.46 14.6953 118.423 17.3753 118.423 22.1953Z" fill="black"/>
<path d="M137.815 22.4347V24.7847C137.815 26.1647 137.544 26.9847 136.514 26.9847C135.891 26.9847 135.593 26.4647 135.593 25.8347V17.5547H138.935V15.1447H135.593V9.55469H132.893C132.676 12.0447 131.971 15.1447 129.253 15.1447H125.008V9.55469H122.317C122.1 12.0447 121.386 15.1447 118.677 15.1447V17.5547H120.501V25.1147C120.501 28.1847 122.055 29.6847 124.845 29.6847C128.115 29.6847 129.415 28.0647 129.415 25.1147V22.4347H127.248V24.7847C127.248 26.1647 126.977 26.9847 125.947 26.9847C125.315 26.9847 125.017 26.4647 125.017 25.8347V17.5547H131.086V25.1147C131.086 28.1847 132.631 29.6847 135.43 29.6847C138.691 29.6847 140 28.0647 140 25.1147V22.4347H137.824H137.815Z" fill="black"/>
</svg>
