<svg width="112" height="81" viewBox="0 0 112 81" fill="none" xmlns="http://www.w3.org/2000/svg">
<path d="M63.3365 54.4206C63.3365 52.7195 64.6959 51.3829 66.3743 51.3829C68.0526 51.3829 69.4121 52.7423 69.4121 54.4206C69.4121 56.099 68.0526 57.4584 66.3743 57.4584C64.6959 57.4584 63.3365 56.099 63.3365 54.4206ZM68.9488 54.4206C68.9868 53.0612 67.9311 51.9221 66.5717 51.8461H66.4122C65.0528 51.7854 63.9137 52.8638 63.8377 54.2232V54.3827C63.8377 55.8788 64.9161 56.9572 66.4122 56.9572C67.7716 56.9952 68.9108 55.9395 68.9868 54.5801C68.9488 54.5194 68.9488 54.4814 68.9488 54.4206ZM65.2731 56.137V52.6587H66.7692C67.6881 52.6587 67.9919 53.0005 67.9919 53.6004C67.9919 54.2004 67.5134 54.5194 66.9135 54.5801L67.9691 56.137H67.4679L66.4882 54.5801H65.7515V56.137H65.2731ZM66.3135 54.1776C66.792 54.1776 67.4755 54.2384 67.4755 53.6004C67.4755 52.9625 67.073 53.0612 66.6553 53.0612H65.7136V54.1776H66.3135Z" fill="#008BCC"/>
<path d="M54.2231 56.6154C64.7567 50.7981 71.1132 41.548 74.3864 31.3942C77.8039 20.8607 77.166 8.26913 73.2245 0.515186C67.2324 3.55297 61.2328 5.19337 54.2004 5.19337C47.1831 5.23134 41.2062 3.53778 35.1762 0.5C31.2195 8.25394 30.5968 20.8835 34.0143 31.3942C37.2951 41.548 43.6668 50.8209 54.1776 56.6154" fill="#008BCC"/>
<path d="M54.2231 51.9221C62.896 46.568 67.4907 38.89 70.4297 30.1943C73.027 22.4784 73.6877 13.4637 70.8094 6.46924C66.473 7.96535 63.9365 8.40583 61.5974 8.77036C59.4026 9.11211 57.4432 9.30957 54.2231 9.37032H54.1852C51.7094 9.37032 49.2488 9.17287 46.8109 8.77036C44.4719 8.39064 41.9353 7.95016 37.5989 6.46924C34.7206 13.5017 35.3585 22.5163 37.9786 30.1943C40.9936 38.89 45.5958 46.5832 54.2231 51.9221Z" fill="white"/>
<path d="M54.2231 49.7804C60.0785 46.0819 66.716 37.728 69.3513 26.754C70.7715 20.9367 71.1512 14.3599 69.3133 9.15009C66.678 9.87156 64.2402 10.426 61.7416 10.7677C59.2051 11.1095 56.7065 11.3449 54.2687 11.3677H54.2307C51.7322 11.3297 49.2108 11.1246 46.7578 10.7677C44.2212 10.426 41.7834 9.84877 39.1405 9.15009C37.3255 14.3675 37.6824 20.8987 39.1026 26.754C41.7378 37.7432 48.3754 46.1199 54.2307 49.7804" fill="#008BCC"/>
<path d="M55.537 29.8146L55.6357 25.6756C55.6357 25.6756 55.0585 25.4326 54.1776 25.3794C53.0156 25.3187 52.5751 25.2427 52.5751 25.2427L52.6131 25.5845C52.6131 25.5845 52.0131 25.7212 51.8916 25.8807C51.8537 25.9414 51.7322 26.0402 51.8537 26.2832C52.4536 27.3996 52.7954 27.9008 53.1143 29.4045C53.9953 29.5412 54.6105 29.6475 55.5142 29.807" fill="white"/>
<path d="M49.0057 29.1615C48.869 31.0601 50.2816 32.1993 52.2866 32.5182C54.4282 32.8144 55.6661 32.9587 56.2433 33.0954C56.4027 33.1562 56.5243 33.2929 56.585 33.4979C56.623 33.6954 56.585 33.7941 56.4863 33.9384C56.3496 34.0979 56.1901 34.1358 56.1901 34.1358L56.1293 36.3914C56.1293 36.3914 56.9116 36.3534 57.6482 35.9129C58.3697 35.5104 58.8102 34.9712 58.9241 34.2953C59.0836 33.5131 58.9849 32.9131 58.4229 32.1385C58.0432 31.6373 57.4052 31.2575 56.7673 31.0601C55.7876 30.7183 53.9497 30.4829 52.5675 30.3234C52.3701 30.2855 52.0283 30.1639 51.9904 29.845C51.9524 29.5032 52.3701 29.4045 52.3701 29.4045C52.3701 29.4045 52.2714 29.0627 52.0891 28.5615C51.8916 28.0831 51.6486 27.5818 51.3676 27.1414C50.4259 27.5211 49.0665 27.878 48.9906 29.1767" fill="white"/>
<path d="M55.4003 33.6954L55.3395 37.4546L53.6232 36.5737L53.4257 33.4979C54.3447 33.5587 54.6864 33.5966 55.4231 33.6954" fill="white"/>
<path d="M50.8056 35.7762C50.2285 37.0977 50.7449 38.3128 52.1271 38.9355C52.727 39.2165 53.5472 39.4368 54.1852 39.6722C54.7851 39.9152 55.9471 40.6519 56.0002 40.9936C56.061 41.1911 55.8635 41.3734 55.8635 41.3734L55.8028 42.9758C55.8028 42.9758 56.38 42.8391 56.8812 42.4366C57.3824 42.0341 57.7014 41.4189 57.6634 40.781C57.6634 39.9 57.2609 39.3988 56.0078 38.6394C55.0661 38.0622 53.7523 37.5609 52.8334 37.1432C52.7726 37.1053 52.4536 36.9458 52.5524 36.604C52.6131 36.4446 52.7954 36.361 52.7954 36.361L52.6587 34.5004C52.6587 34.5004 52.1802 34.6371 51.8385 34.8421C51.5575 34.9788 51.0183 35.2826 50.7828 35.7838" fill="white"/>
<path d="M55.3016 41.2519C55.3016 41.1151 55.2636 41.1151 55.2028 41.0088C55.0054 40.8114 54.7623 40.6291 54.5269 40.4696C54.2459 40.3101 53.646 40.1279 53.646 40.1279C53.646 40.1279 53.7447 44.1833 53.8054 46.3249C53.8434 46.8034 54.0029 46.9629 54.4813 46.9629C54.9598 46.9629 55.1573 46.7199 55.1573 46.4237C55.1573 45.7478 55.256 42.8239 55.294 41.2443M55.9167 14.3675C56.1142 14.5042 56.1142 14.5649 56.1977 14.8687C56.3344 15.5446 56.099 16.5243 56.1977 16.9648C56.2585 17.1015 56.3952 17.1015 56.5394 17.0255C57.4584 16.5243 58.0963 15.6661 59.0152 15.2636C59.4557 15.0662 60.7164 15.7041 60.4354 16.623C60.2987 17.0635 60.1924 17.0635 59.9342 17.2989C59.357 17.8381 58.5748 18.3773 57.7925 19.114C57.3141 19.5925 56.8508 19.8507 56.4711 20.3899C56.4103 20.5266 56.1901 20.8683 56.1901 20.8683C54.9142 20.5873 53.5548 20.5873 52.5751 20.3671L52.5144 19.2507C52.5144 19.2507 53.7903 19.2507 53.9345 18.4305C53.9345 18.3925 53.8966 18.1495 53.7751 18.0508C53.5776 17.9141 53.3346 17.8078 53.1371 17.7546C54.1168 17.9141 54.9978 18.2558 55.9775 18.6963C56.0382 18.5976 55.8787 18.2179 55.818 18.1191C55.6813 17.9597 55.5218 17.8381 55.18 17.7394C54.5801 17.5799 53.084 17.3977 53.084 17.3977L54.3447 17.3369C54.6408 17.2762 54.9826 17.1774 55.0661 17.0559C55.2028 16.7749 54.7244 16.3344 54.4282 15.9395C54.2915 15.7421 54.0864 15.3396 53.8282 15.0965C53.4865 14.694 52.5068 14.3143 52.5068 14.3143C52.5068 14.3143 52.446 13.6384 52.5675 13.3346C52.7043 13.0916 53.2055 13.0536 53.3877 13.1751C54.17 13.6764 55.0054 14.1548 55.9851 14.3371" fill="white"/>
<path d="M60.1772 24.7643C59.9797 23.7846 59 22.8277 58.0811 22.3872C55.78 21.2101 53.2814 21.6506 50.9044 20.8683C50.2285 20.6253 49.4083 20.3291 49.2488 19.5469C49.1121 19.0684 49.15 18.5672 49.4918 18.3698C50.031 18.0736 50.4335 18.5672 51.2917 18.7495C51.8309 18.8862 52.4536 18.8482 52.8485 18.7495C53.046 18.6887 53.289 18.6507 53.327 18.4685C53.327 18.3318 53.0308 18.2255 52.9245 18.1723C52.6435 18.0356 52.4232 18.0356 52.1423 17.9293C51.6638 17.7698 51.1626 17.428 50.6841 17.147C51.1246 17.0483 51.9068 17.0483 52.3397 17.0863C52.7194 17.1243 53.7979 17.1243 54.1396 17.0255C54.2004 16.9876 54.3826 16.9648 54.2991 16.8281C54.1624 16.6306 53.9573 16.5319 53.7978 16.3268C53.4561 15.8864 53.1979 15.4079 52.6815 15.2105C51.1626 14.6333 49.4614 14.489 47.9881 15.2712C45.9528 16.3496 45.1478 18.871 46.1274 20.9291C46.9476 22.5847 48.5045 23.4656 50.3272 23.9061C51.2081 24.1491 51.9828 24.2858 52.9625 24.3846C54.0788 24.5213 55.0585 24.544 56.1369 24.825C56.38 24.8858 56.7369 25.0681 56.8736 25.3035C57.0711 25.706 56.9344 26.2224 56.4331 26.4654C56.4331 27.4072 56.2964 29.3817 56.2964 29.3817C56.2964 29.3817 60.9746 28.9033 60.1924 24.8023L60.1696 24.7643H60.1772ZM52.8258 15.9243C52.727 15.8864 52.6283 15.8864 52.5296 15.8864C52.3321 16.0231 52.1878 16.1674 51.9904 16.1826C51.5499 16.2433 51.6106 15.8864 51.3524 15.6813C51.1929 15.5446 51.0107 15.7193 50.8512 15.4003C51.4512 15.4383 52.4081 15.4383 52.8485 15.9016L52.8258 15.9243Z" fill="white"/>
<path d="M52.56 42.6113C52.3169 42.8543 51.7777 43.3479 51.884 44.4111C51.9448 45.0871 52.0815 45.2921 52.3245 45.7326C52.484 46.0288 52.765 46.1731 52.8637 45.7326C52.9245 45.4516 52.7042 45.2313 52.765 44.6542C52.8637 44.077 53.1447 43.9783 53.1447 43.9783L53.084 42.2163C52.8865 42.3151 52.7042 42.4594 52.5827 42.6189" fill="white"/>
<path d="M0.94043 64.5972H6.77297C9.55254 64.4149 12.3321 65.5769 12.3321 68.6375C12.3321 71.698 11.1702 71.5158 9.63608 72.055C11.6182 72.4954 13.0536 73.8548 13.0536 76.0952C13.0536 78.3356 9.1956 80.3101 6.85651 80.1355H0.94043V64.5972ZM6.85651 70.8095C8.29186 70.8095 9.01334 70.2703 9.01334 69.0096C9.01334 67.7489 8.21592 67.2097 6.85651 67.2097H4.25921V70.8854L6.85651 70.8019V70.8095ZM6.85651 77.4394C8.3754 77.4394 9.45381 77.1812 9.45381 75.3813C9.45381 73.5814 8.3754 73.3232 6.85651 73.3232H4.25921V77.4622H6.85651V77.4394ZM18.3469 64.6124V80.0595H15.1117V64.6124H18.3469ZM28.1438 78.7001C27.4223 79.6798 26.4426 80.3177 24.825 80.3177C23.2074 80.3177 21.6885 79.5203 21.324 77.9027C21.1417 77.28 21.1417 76.5661 21.1417 76.2015V69.207H24.3769V75.7611C24.3769 76.923 24.7339 78.2824 26.2528 78.2824C27.7716 78.2824 28.1286 77.3863 28.1286 75.7611V69.3058H31.3638V78.1001C31.3638 78.7229 31.4474 79.3608 31.4474 79.976H28.2121L28.1286 78.7153V78.6925L28.1438 78.7001ZM37.0369 75.5636C37.0369 76.999 37.2192 78.2596 38.9127 78.2596C40.6063 78.2596 40.6139 77.8192 40.8949 76.8243H43.7732C43.515 79.5203 41.4341 80.3253 38.9203 80.3253C35.2446 80.3253 33.7029 78.2672 33.7029 74.6675C33.7029 71.0677 35.5787 68.9336 38.9203 68.9336C42.2619 68.9336 42.596 69.6551 43.4998 71.5309C43.758 72.1537 43.9402 72.7916 44.039 73.4068C44.1377 74.0219 44.1225 74.7434 44.1225 75.4649L37.0293 75.5484L37.0521 75.5712L37.0369 75.5636ZM40.7885 73.4068C40.7885 72.2448 40.4316 71.1664 38.9127 71.1664C37.3938 71.1664 37.1128 72.2448 37.0369 73.4068H40.8113H40.7885ZM54.5421 69.0096C54.4586 67.4907 53.5624 66.6705 51.9448 66.6705C50.3272 66.6705 49.5298 67.2932 49.5298 68.6527C49.5298 70.0121 51.0487 70.5285 52.4081 70.8095C54.7472 71.4322 58.2406 72.0702 58.2406 75.2067C58.2406 78.3432 54.9218 80.4241 51.6031 80.4241C48.2843 80.4241 45.5882 79.0874 45.687 75.1307H49.1045C49.0209 76.8319 50.0006 78.009 51.7018 78.009C53.4029 78.009 54.7623 77.5685 54.7623 75.9509C54.7623 74.3333 52.522 73.9688 51.2613 73.6118C49.1045 73.0726 46.1426 72.0929 46.1426 69.2982C46.1426 66.5034 49.3779 64.1795 52.5979 64.1795C55.818 64.1795 57.8913 65.7971 57.8913 68.9336L54.5725 69.0172H54.5345L54.5421 69.0096ZM60.4582 80.0443V64.5972H63.6934V70.612C64.3162 69.6323 65.3946 68.9944 67.0122 68.9944C68.6298 68.9944 70.1487 69.7918 70.5132 71.3335C70.6955 71.9562 70.6955 72.6701 70.6955 73.0346V80.0291H67.559V73.5739C67.559 72.4119 67.2021 71.1588 65.6832 71.1588C64.1643 71.1588 63.8073 72.055 63.8073 73.5739V80.0291H60.4886L60.4658 80.0519L60.4582 80.0443ZM76.885 64.6124V67.392H73.4675V64.6124H76.885ZM76.7027 69.2678V80.0367H73.4675V69.2678H76.7027ZM82.3606 75.5636C82.3606 76.999 82.5429 78.2596 84.2364 78.2596C85.93 78.2596 85.9376 77.8192 86.2186 76.8243H89.0969C88.8387 79.5203 86.7578 80.3253 84.244 80.3253C80.5683 80.3253 79.0266 78.2672 79.0266 74.6675C79.0266 71.0677 80.9025 68.9336 84.244 68.9336C87.5856 68.9336 87.9197 69.6551 88.8235 71.5309C89.0817 72.1537 89.264 72.7916 89.3627 73.4068C89.4614 74.0219 89.4462 74.7434 89.4462 75.4649L82.353 75.5484L82.3758 75.5712L82.3606 75.5636ZM86.0363 73.4068C86.0363 72.2448 85.6794 71.1664 84.1605 71.1664C82.6416 71.1664 82.3606 72.2448 82.2847 73.4068H86.0591H86.0363ZM94.5725 64.6124V80.0595H91.3372V64.6124H94.5725ZM104.802 64.6124H108.037V77.9862C108.037 78.7077 108.121 79.4216 108.121 80.1431H104.886C104.886 79.6039 104.802 79.1634 104.802 78.6242C104.081 79.8848 102.926 80.5 101.483 80.5C98.3469 80.5 96.8053 77.5458 96.8053 74.7662C96.8053 71.9866 98.5064 69.0324 101.84 69.0324C105.174 69.0324 104.081 69.6551 104.719 70.5513L104.802 64.6352V64.6124ZM102.463 78.2596C104.164 78.2596 104.802 76.2015 104.802 74.6599C104.802 73.1182 104.263 71.0601 102.463 71.0601C100.663 71.0601 100.124 72.9359 100.124 74.6599C100.124 76.2775 100.382 78.2596 102.463 78.2596Z" fill="#231F20"/>
<path d="M108.782 78.8824C108.782 78.2444 109.283 77.7432 109.921 77.7432C110.559 77.7432 111.06 78.2444 111.06 78.8824C111.06 79.5203 110.559 80.0215 109.921 80.0215C109.283 80.0215 108.782 79.5203 108.782 78.8824ZM110.878 78.8824C110.878 78.3811 110.498 77.9407 109.997 77.9255H109.936C109.435 77.9027 108.994 78.3052 108.979 78.8064V78.8672C108.979 79.4292 109.382 79.8241 109.936 79.8241C110.437 79.8241 110.878 79.4444 110.893 78.9431V78.8824H110.87H110.878ZM109.678 79.5203H109.518V78.2217H110.08C110.422 78.2217 110.544 78.3432 110.544 78.5786C110.544 78.814 110.361 78.9203 110.141 78.9355L110.544 79.5127H110.346L109.989 78.9355H109.708V79.5127H109.685L109.678 79.5203ZM109.898 78.7837C110.08 78.7837 110.339 78.8064 110.339 78.5634C110.339 78.3204 110.179 78.366 110.042 78.366H109.685V78.7837H109.906" fill="#231F20"/>
</svg>
