<svg width="140" height="75" viewBox="0 0 140 75" fill="none" xmlns="http://www.w3.org/2000/svg">
<path d="M113.815 49.1289C122.757 48.6622 129.188 56.6425 126.779 65.2949C123.625 76.6074 107.263 77.5314 102.698 66.8349C99.1421 58.4999 104.845 49.5956 113.815 49.1289Z" fill="#00A5DE"/>
<path d="M95.278 49.5116V56.4746C92.5152 54.8972 88.203 54.5051 85.6082 56.6052C81.5386 59.8907 82.9107 66.555 88.0629 67.731C90.5457 68.3004 93.0379 67.759 95.278 66.639V73.2006C94.6246 73.3686 93.9619 73.5366 93.2899 73.6579C90.4431 74.162 87.5869 74.1526 84.8335 73.2006C73.1756 69.1684 74.1836 51.957 86.2149 49.1476C89.295 48.4289 92.2165 48.8676 95.2686 49.5209L95.278 49.5116Z" fill="#00A5DE"/>
<path d="M31.2291 49.5098V56.4728C29.073 55.1754 25.7502 54.7367 23.37 55.6141C17.7044 57.7048 17.8724 65.9372 23.7154 67.6359C26.1982 68.3639 28.9796 67.8319 31.2291 66.6372V73.1521C30.7997 73.3668 30.221 73.4695 29.7263 73.5722C26.7022 74.1882 23.6314 74.1789 20.7099 73.1148C9.04268 68.868 10.2934 51.6752 22.5113 49.0711C25.4608 48.4458 28.3169 48.8751 31.2291 49.5098Z" fill="#00A5DE"/>
<path d="M69.0505 50.0718V55.112C66.829 54.6547 63.9542 53.908 61.7514 54.7293C60.6687 55.1307 59.866 56.1481 60.622 57.2681C61.3781 58.3882 64.7009 59.0882 66.073 59.7415C69.1718 61.2163 71.0572 63.9324 70.5719 67.4605C69.9932 71.5674 66.5303 73.6675 62.6941 74.2181C60.314 74.5542 56.5245 74.3115 54.1537 73.8261C54.0604 73.8075 54.0044 73.7981 53.9484 73.7048V68.1419C56.4592 68.8699 59.6887 69.5606 62.2648 68.8232C64.8409 68.0859 64.9156 65.8178 62.4235 64.7444C60.398 63.867 58.7646 63.8297 56.8045 62.4483C52.9497 59.7415 53.0243 53.9266 56.7579 51.1545C60.2674 48.5411 65.0556 49.2878 69.0691 50.0718H69.0505Z" fill="#00A5DE"/>
<path d="M102.941 0.657727C104.995 0.405717 106.507 1.83378 106.563 3.86853V35.7899C106.563 39.4953 101.56 40.2981 100.421 36.8072C100.178 25.6908 100.384 14.5276 100.318 3.39251C100.486 2.01112 101.541 0.825734 102.941 0.657727Z" fill="#00A5DE"/>
<path d="M36.2418 0.655823C38.0992 0.431814 39.5739 1.62653 39.7793 3.47461V36.2733C39.3593 39.7735 34.375 40.0255 33.6377 36.572C33.4043 25.6889 33.6003 14.7684 33.535 3.87596C33.5537 2.27989 34.6084 0.851831 36.2325 0.655823H36.2418Z" fill="#00A5DE"/>
<path d="M46.0143 49.5117H39.7793V73.7514H46.0143V49.5117Z" fill="#00A5DE"/>
<path d="M52.9582 12.0923C54.9183 11.8589 56.3557 13.231 56.4957 15.1444C56.8597 19.9606 56.225 25.2341 56.4864 30.097C56.113 34.0358 50.6061 33.9518 50.2607 30.1064V14.8364C50.4568 13.4177 51.5115 12.2603 52.9675 12.0923H52.9582Z" fill="#00A5DE"/>
<path d="M86.3089 12.0903C88.1663 11.8757 89.6784 13.1264 89.8464 14.9838V30.2538C89.2584 34.0619 83.9008 33.9219 83.6021 29.9458C83.2381 25.1296 83.8728 19.856 83.6114 14.9931C83.7328 13.5184 84.8061 12.2583 86.2996 12.081L86.3089 12.0903Z" fill="#00A5DE"/>
<path d="M23.1567 15.2377V29.7143C23.1847 33.3452 18.3778 34.3345 17.0524 30.9371C16.8938 25.4862 16.9778 20.0446 16.9404 14.6124C17.5658 11.1402 22.9887 11.2056 23.1661 14.6964C23.1754 14.9204 23.1661 15.2377 23.1661 15.2377H23.1567Z" fill="#00A5DE"/>
<path d="M119.658 12.0903C121.17 11.913 122.552 12.7343 123.056 14.1624C123.364 19.5199 123.121 24.9522 123.186 30.3377C122.542 34.2299 116.989 33.7352 116.989 29.7964C117.269 25.1202 116.634 20.0333 116.989 15.4038C117.11 13.7517 117.838 12.305 119.658 12.0903Z" fill="#00A5DE"/>
<path d="M134.573 21.2939C136.234 19.6325 139.212 20.4166 139.781 22.7033C140.089 23.9354 140.014 28.6023 139.902 30.0303C139.585 34.0065 133.966 34.0251 133.658 30.0303C133.518 28.2849 133.499 25.0368 133.658 23.31C133.723 22.61 134.069 21.798 134.563 21.2939H134.573Z" fill="#00A5DE"/>
<path d="M5.36638 32.1232C3.64896 33.8686 0.522145 32.9539 0.0741239 30.5551C0.0647901 27.9884 -0.075217 25.3003 0.0554559 23.0135C0.260799 19.588 5.8984 19.5787 6.15975 22.8642C6.35576 25.3283 6.28109 27.951 6.19708 30.4245C6.14108 30.9752 5.7584 31.7312 5.36638 32.1139V32.1232Z" fill="#00A5DE"/>
<path d="M69.7495 20.4163C71.3922 20.2576 72.9883 21.471 73.1283 23.1511C73.3243 25.4285 72.9696 27.9766 73.1283 30.2727C72.6523 33.9315 67.4347 33.9222 66.968 30.2727C67.1267 27.9673 66.772 25.4192 66.968 23.1511C67.0894 21.7043 68.3308 20.5563 69.7495 20.4163Z" fill="#00A5DE"/>
<path d="M113.741 55.3722C122.468 54.4761 123.374 67.5433 114.992 68.15C106.61 68.7567 105.649 56.2029 113.741 55.3722Z" fill="white"/>
</svg>
