<svg width="132" height="59" viewBox="0 0 132 59" fill="none" xmlns="http://www.w3.org/2000/svg">
<path d="M11.8589 58.1499C10.0489 57.9199 7.85893 55.86 7.85893 53.98V25.16H4.35893C2.21893 25.16 0.638931 22.6799 0.868931 20.6699C1.02893 19.3199 2.57893 17.2699 4.02893 17.2699H7.86893C7.62893 11.1799 8.26893 4.28995 14.7289 1.74995C17.3889 0.699951 22.0289 0.509948 24.7889 1.19995C27.3889 1.84995 28.5889 5.08995 27.0389 7.26995C25.1889 9.86995 22.7589 8.34995 20.2289 9.12995C18.3589 9.70995 16.9789 11.8299 16.9789 13.7699V17.3799H24.5989C25.7189 17.3799 27.1589 19.0499 27.4689 20.07C28.1289 22.25 26.5489 25.16 24.1589 25.16H17.0989V54.2099C17.0989 55.8899 14.8289 57.9399 13.2089 58.1499C12.9089 58.1899 12.1789 58.1899 11.8789 58.1499H11.8589Z" fill="#0098DD"/>
<path d="M38.0989 58.1499H36.6489C34.5189 57.6399 32.9989 56.08 32.7589 53.87C32.8689 37.49 32.5389 21.07 32.9189 4.71995C34.4489 -0.340048 41.4689 0.439954 41.9889 5.65995V53.87C41.7489 56.06 40.2189 57.6599 38.0889 58.1499H38.0989Z" fill="#0098DD"/>
<path d="M95.0289 58.1499C94.7489 58.1899 94.0789 58.1899 93.8089 58.1499C90.0589 57.6499 88.4189 52.8799 90.9189 50.0999L123.329 17.05C126.929 13.93 132.179 17.3799 130.979 21.9199C130.519 23.6699 128.029 25.87 126.719 27.22C117.029 37.2299 107.109 47.03 97.4189 57.04C96.8289 57.52 95.7789 58.0499 95.0289 58.1499Z" fill="#0098DD"/>
<path d="M127.059 58.1499C126.779 58.1899 126.119 58.1899 125.839 58.1499C123.719 57.8799 120.379 54.05 118.829 52.43C117.439 50.98 115.629 49.41 115.199 47.4C114.149 42.57 118.319 40.43 120.999 37.26C122.279 36.78 121.609 38.31 121.609 38.99C121.609 43.22 127.239 46.89 129.789 49.93C132.299 52.91 131.029 57.6199 127.059 58.1499Z" fill="#0098DD"/>
<path d="M93.8989 15.86C95.1289 15.72 96.4089 16.11 97.3689 16.88C99.5189 19.26 102.279 21.49 104.319 23.93C104.859 24.57 105.299 25.35 105.539 26.15C107.029 31.15 102.589 33.6 99.7289 36.79C98.6289 37.12 99.2589 35.51 99.2589 34.98C99.2789 30.75 93.4989 26.99 90.9689 23.93C88.5089 20.96 89.9589 16.3 93.8889 15.85L93.8989 15.86Z" fill="#0098DD"/>
<path d="M71.4589 58.15C70.3989 58.22 68.7189 58.24 67.6789 58.15C45.2589 56.14 42.4389 23.61 62.7289 16.38C76.5589 11.46 87.4089 22.05 88.0289 35.54C88.1289 37.72 88.0989 39.63 85.5089 40.03L58.6389 40.07C58.0989 40.23 58.5789 41.52 58.6989 41.96C60.9989 50.35 70.1289 52.6 77.2289 48.42C78.9689 47.4 80.0489 46.11 82.3189 47.13C85.1589 48.41 85.0789 51.89 82.8489 53.81C79.9389 56.32 75.2289 57.9 71.4589 58.15ZM58.5089 32.16C58.4389 32.53 58.1789 33.38 58.4489 33.66H78.6889C79.0089 33.33 78.5589 31.63 78.4289 31.13C77.1089 26.05 73.2489 22.48 67.7589 22.97C62.8189 23.41 59.4289 27.5 58.4989 32.15L58.5089 32.16Z" fill="#0098DD"/>
</svg>
