<svg width="140" height="25" viewBox="0 0 140 25" fill="none" xmlns="http://www.w3.org/2000/svg">
<path opacity="0.35" fill-rule="evenodd" clip-rule="evenodd" d="M19.4475 0.32549C19.2578 0.32549 19.0681 0.30743 18.8965 0.253236H8.37371C8.11177 0.289365 7.84983 0.325493 7.58789 0.370655C7.75951 0.31646 7.94016 0.271297 8.12081 0.235167C11.797 0.208069 15.4732 0.208069 19.1404 0.235167C19.2488 0.244199 19.3481 0.28033 19.4475 0.334524V0.32549Z" fill="#F5865B"/>
<path fill-rule="evenodd" clip-rule="evenodd" d="M19.4462 0.326408H19.4823C19.5365 0.398668 19.6178 0.416734 19.7082 0.398669C20.3766 0.62448 20.9546 0.994814 21.4334 1.50966C21.4334 1.56386 21.4604 1.60902 21.5056 1.62708C21.623 1.7445 21.7314 1.87096 21.8308 2.00644C22.2734 2.78323 22.7069 3.56003 23.1495 4.33682C23.1495 4.39101 23.1766 4.43617 23.2218 4.45424C23.2579 4.4994 23.276 4.5536 23.294 4.60779C23.294 4.66199 23.3211 4.70715 23.3663 4.72521C23.8631 5.5562 24.3508 6.39622 24.8205 7.2543C24.8205 7.30849 24.8476 7.35365 24.8928 7.37172C25.2902 8.05819 25.6876 8.75368 26.076 9.44015C26.076 9.49434 26.1031 9.53951 26.1483 9.55757C26.2657 9.73822 26.3651 9.9279 26.4554 10.1356C26.4554 10.2079 26.4915 10.2531 26.5728 10.2531C26.7625 10.5511 26.907 10.8673 26.9973 11.2105C26.9793 11.3279 27.0064 11.4273 27.0696 11.5176C27.1057 11.5989 27.1148 11.6892 27.1057 11.7886C27.1057 11.8608 27.1057 11.9241 27.1419 11.9783C27.178 12.3034 27.1961 12.6376 27.178 12.9718C27.1148 13.0351 27.0967 13.1073 27.1057 13.1976V13.3873C27.0335 13.4596 27.0064 13.5409 27.0335 13.6583C26.9883 13.9112 26.907 14.1551 26.7806 14.3899C26.2928 15.0674 25.8231 15.7538 25.3805 16.4584C25.3444 16.4674 25.3173 16.4945 25.3083 16.5306C25.2721 16.6209 25.227 16.7022 25.1547 16.7564C25.1186 16.7655 25.0915 16.7926 25.0825 16.8287C25.0192 16.9732 24.9199 17.0726 24.7754 17.1358C24.7392 17.1448 24.7121 17.1719 24.7031 17.2081C24.2515 17.6145 23.7005 17.8584 23.0592 17.9397C22.7792 17.9126 22.5082 17.9397 22.2553 18.0119H22.2192C22.2192 18.0119 22.1921 17.9487 22.1469 17.9397C21.9572 17.9939 21.7676 17.9939 21.5688 17.9397C21.5237 17.9487 21.4966 17.9758 21.4966 18.0119H21.4604C21.4604 18.0119 21.4334 17.9487 21.3882 17.9397C21.1985 17.9939 21.0088 17.9939 20.8101 17.9397C20.765 17.9487 20.7379 17.9758 20.7379 18.0119H20.7017C20.7017 18.0119 20.6746 17.9487 20.6295 17.9397C20.4398 17.9939 20.2501 17.9939 20.0514 17.9397C20.0062 17.9487 19.9791 17.9758 19.9791 18.0119H19.943C19.943 18.0119 19.9159 17.9487 19.8707 17.9397C19.6811 17.9939 19.4914 17.9939 19.2927 17.9397C19.2475 17.9487 19.2204 17.9758 19.2204 18.0119H19.1843C19.1843 18.0119 19.1572 17.9487 19.112 17.9397C18.9223 17.9939 18.7327 17.9939 18.5339 17.9397C18.4888 17.9487 18.4617 17.9758 18.4617 18.0119H18.4255C18.4255 18.0119 18.3984 17.9487 18.3533 17.9397C18.1636 17.9939 17.9739 17.9939 17.7752 17.9397C17.73 17.9487 17.7029 17.9758 17.7029 18.0119H17.6668C17.6668 18.0119 17.6397 17.9487 17.5946 17.9397C17.4049 17.9939 17.2152 17.9939 17.0165 17.9397C16.9713 17.9487 16.9442 17.9758 16.9442 18.0119H16.9081C16.9081 18.0119 16.881 17.9487 16.8358 17.9397C16.7365 17.9487 16.6371 17.9577 16.5287 17.9577C16.5107 17.9758 16.4926 17.9939 16.4926 18.0119H16.3752C16.3752 17.9306 16.3932 17.8494 16.4294 17.7861C17.0075 16.8016 17.5946 15.8171 18.1726 14.8415C18.2268 14.8235 18.2539 14.7874 18.2449 14.7241C18.2901 14.5977 18.3533 14.4893 18.4346 14.3809C18.4888 14.3628 18.5159 14.3267 18.5068 14.2635C18.561 14.1461 18.6243 14.0286 18.6965 13.9202C18.7507 13.9022 18.7778 13.8661 18.7688 13.8028C19.0307 13.3241 19.3017 12.8454 19.5727 12.3667C18.6875 10.8853 17.8204 9.40402 16.9713 7.90464C16.9623 7.86851 16.9352 7.84141 16.8991 7.83238C16.7997 7.65173 16.6913 7.47107 16.592 7.29946C15.5984 7.24526 14.5868 7.2272 13.5661 7.2272C12.5545 7.2272 11.5519 7.23623 10.5402 7.24527C10.5131 7.27236 10.4951 7.29946 10.5041 7.34462C9.73633 8.65433 8.96857 9.955 8.20985 11.2466C8.17372 11.2557 8.14662 11.2828 8.13759 11.3189C8.02017 11.5808 7.87565 11.8428 7.71306 12.0867C7.67693 12.0957 7.64984 12.1228 7.6408 12.1589C7.63177 12.2402 7.58661 12.3125 7.52338 12.3667C8.08339 13.3331 8.63437 14.3086 9.16729 15.2932C9.16729 15.3474 9.19438 15.3925 9.23955 15.4106C9.43826 15.7538 9.63697 16.0971 9.81762 16.4403C9.81762 16.4945 9.84472 16.5397 9.88988 16.5577C10.3234 17.2713 10.7389 17.9939 11.1183 18.7436C11.1183 18.7978 11.1454 18.8429 11.1906 18.861C11.3983 19.1952 11.588 19.5384 11.7686 19.8907C11.7686 19.9449 11.7957 19.99 11.8409 20.0081C12.3828 20.9294 12.9067 21.8598 13.4125 22.7991C13.4125 22.8533 13.4396 22.8985 13.4848 22.9166C13.7919 23.4314 14.0809 23.9553 14.3609 24.4882C14.3609 24.5424 14.388 24.5876 14.4332 24.6056C14.4603 24.6327 14.4874 24.6598 14.5055 24.705C14.5055 24.7231 14.4874 24.723 14.4693 24.723C12.3828 24.723 10.2873 24.723 8.19178 24.723C8.16469 24.7321 8.13759 24.7501 8.11952 24.7592C8.0563 24.7592 7.99307 24.7501 7.92984 24.723C7.90275 24.6869 7.86661 24.6779 7.81242 24.6869C7.63177 24.6598 7.46016 24.6237 7.31564 24.5695C7.17112 24.5153 7.03563 24.4521 6.89111 24.3798C6.87305 24.3256 6.83692 24.2985 6.77369 24.3076C6.68336 24.2895 6.61111 24.2534 6.54788 24.1901C6.52078 24.0908 6.45755 24.0456 6.3582 24.0366C5.90658 23.6843 5.57237 23.2327 5.36463 22.6998C5.3556 22.6637 5.3285 22.6366 5.29237 22.6275C5.21108 22.5101 5.14785 22.3836 5.10269 22.2482C5.09365 22.212 5.06656 22.1849 5.03043 22.1759C3.85621 20.1436 2.68199 18.1203 1.50777 16.088C1.50777 16.0248 1.48971 15.9887 1.43551 15.9706C1.34519 15.79 1.25486 15.6183 1.16454 15.4377C1.15551 15.4016 1.12841 15.3745 1.09228 15.3654C1.01099 15.248 0.947761 15.1216 0.902599 14.9861C0.893566 14.9499 0.866469 14.9228 0.830339 14.9138C0.667755 14.6519 0.514203 14.3809 0.369684 14.1099C0.369684 14.0738 0.369685 14.0467 0.333555 14.0377C0.243231 13.848 0.161939 13.6583 0.107744 13.4596C0.125809 13.3783 0.0987116 13.3151 0.0354845 13.2699C0.0264521 12.737 0.0354836 12.195 0.0716134 11.6621C0.125808 11.6441 0.152905 11.6079 0.143873 11.5447C0.2071 11.2828 0.31549 11.0479 0.450976 10.8131C0.487106 10.804 0.514203 10.777 0.523236 10.7408C0.703885 10.3886 0.893566 10.0453 1.10131 9.71113C1.15551 9.69306 1.1826 9.65693 1.17357 9.5937C1.55293 8.88917 1.94133 8.2027 2.35682 7.52527C2.41102 7.5072 2.43812 7.47108 2.42908 7.40785C2.47425 7.2814 2.53747 7.17301 2.61876 7.06462C2.67296 7.04655 2.70006 7.01042 2.69102 6.94719C3.07039 6.24266 3.46781 5.5562 3.87427 4.87876C3.92847 4.8607 3.95557 4.82457 3.94653 4.76134C3.97363 4.70715 4.00073 4.66199 4.01879 4.60779C4.07299 4.58973 4.10009 4.55359 4.09105 4.49037C4.35299 4.01165 4.61493 3.54196 4.89494 3.07227C4.93107 3.06324 4.95817 3.03615 4.9672 3.00002C5.22914 2.44001 5.54528 1.90709 5.90658 1.39224C6.37626 0.895452 6.93627 0.561253 7.56854 0.398669C7.83048 0.36254 8.09243 0.31738 8.35437 0.28125H18.8772C19.0578 0.335445 19.2385 0.362544 19.4281 0.353511L19.4462 0.326408Z" fill="#FD5000"/>
<path opacity="0.62" fill-rule="evenodd" clip-rule="evenodd" d="M19.4834 0.324219C19.5737 0.324219 19.646 0.351318 19.7092 0.39648C19.6099 0.414545 19.5376 0.396478 19.4834 0.324219Z" fill="#A84B28"/>
<path opacity="0.35" fill-rule="evenodd" clip-rule="evenodd" d="M21.4343 1.50781C21.4885 1.52588 21.5156 1.562 21.5066 1.62523C21.4524 1.60717 21.4253 1.57104 21.4343 1.50781Z" fill="#B36344"/>
<path opacity="0.12" fill-rule="evenodd" clip-rule="evenodd" d="M4.97656 2.96484C4.97656 2.96484 4.94043 3.02807 4.9043 3.0371C4.9043 2.9829 4.93139 2.96484 4.97656 2.96484Z" fill="#4C2A1C"/>
<path opacity="0.12" fill-rule="evenodd" clip-rule="evenodd" d="M23.1589 4.34375C23.2131 4.36181 23.2402 4.39794 23.2312 4.46117C23.177 4.4431 23.1499 4.40698 23.1589 4.34375Z" fill="#713E2A"/>
<path opacity="0.35" fill-rule="evenodd" clip-rule="evenodd" d="M4.10058 4.46094C4.10058 4.51513 4.07348 4.5603 4.02832 4.57836C4.02832 4.52417 4.05542 4.479 4.10058 4.46094Z" fill="#975339"/>
<path opacity="0.12" fill-rule="evenodd" clip-rule="evenodd" d="M23.3132 4.61719C23.3674 4.63525 23.3945 4.67139 23.3855 4.73461C23.3313 4.71655 23.3042 4.68041 23.3132 4.61719Z" fill="#713E2A"/>
<path opacity="0.35" fill-rule="evenodd" clip-rule="evenodd" d="M3.94726 4.72266C3.94726 4.77685 3.92016 4.82201 3.875 4.84008C3.875 4.78588 3.9021 4.74072 3.94726 4.72266Z" fill="#975339"/>
<path opacity="0.35" fill-rule="evenodd" clip-rule="evenodd" d="M2.68261 6.91016C2.68261 6.96435 2.65551 7.00952 2.61035 7.02758C2.61035 6.97339 2.63745 6.92822 2.68261 6.91016Z" fill="#975339"/>
<path opacity="0.96" fill-rule="evenodd" clip-rule="evenodd" d="M76.3608 6.98045C77.6073 6.8811 78.7635 7.1611 79.8474 7.82047C80.1093 7.98306 80.3351 8.18177 80.5338 8.41662C80.3261 8.70566 80.1093 8.99469 79.9015 9.2747C79.8744 9.31986 79.8383 9.33793 79.7841 9.34696C79.188 8.89534 78.5376 8.56113 77.8512 8.33532C76.9931 8.10048 76.1982 8.2179 75.4756 8.67855C74.9518 9.14824 74.7982 9.73535 74.9969 10.4218C75.1776 10.9728 75.5389 11.3522 76.0898 11.5509C76.7582 11.7315 77.4357 11.9212 78.1221 12.1289C80.2809 12.9509 80.9945 14.4593 80.2448 16.6632C79.757 17.5936 78.9983 18.1626 77.9686 18.3704C76.3428 18.6775 74.8343 18.3794 73.4524 17.4942C73.3621 17.422 73.2988 17.3407 73.2627 17.2413C73.4072 16.9161 73.5698 16.6 73.7414 16.2839C74.5092 16.7265 75.3221 17.0336 76.1711 17.1871C76.966 17.3226 77.6886 17.1871 78.357 16.8078C78.628 16.6 78.8267 16.3381 78.9531 16.0219C79.0164 15.7239 79.0615 15.4348 79.0886 15.1638C79.0615 14.5045 78.7544 14.0167 78.1673 13.7096C77.4538 13.4116 76.7312 13.1767 76.0086 13.0051C75.4756 12.8244 74.9789 12.5896 74.5001 12.3006C73.7685 11.7496 73.4343 11.0089 73.5066 10.0786C73.5246 8.61533 74.2292 7.63982 75.6111 7.17013C75.8731 7.10691 76.126 7.05272 76.3789 6.99852L76.3608 6.98045Z" fill="#232221"/>
<path opacity="0.96" fill-rule="evenodd" clip-rule="evenodd" d="M92.7369 18.0483C91.8608 17.5786 91.2285 16.8741 90.8401 15.9437C90.3614 14.634 90.1717 13.2882 90.262 11.8882C90.3162 10.8946 90.5782 9.96427 91.0298 9.09716C92.1137 7.39002 93.6673 6.70355 95.6815 7.04679C96.937 7.2997 97.8764 7.99519 98.4906 9.13328C98.9874 10.2533 99.2222 11.4185 99.1951 12.6379C99.2132 13.8753 98.9784 15.0495 98.4906 16.1786C97.5693 17.8406 96.1783 18.6174 94.3176 18.509C94.0466 18.4548 93.7666 18.3825 93.4957 18.3193C93.4686 18.3193 93.4505 18.3374 93.4415 18.3554C93.2066 18.2561 92.9718 18.1567 92.7369 18.0483ZM94.4621 8.21197C96.0699 8.19391 97.0635 8.95264 97.4699 10.5062C97.5783 10.9849 97.6687 11.4727 97.7229 11.9604C97.7138 12.5385 97.7048 13.1076 97.7048 13.6856C97.6235 14.3631 97.4609 15.0134 97.208 15.6366C96.5306 16.9283 95.4738 17.4251 94.0286 17.127C93.315 16.9825 92.746 16.6031 92.3214 15.9799C91.8608 15.185 91.5988 14.3269 91.5356 13.4147C91.3821 12.0869 91.6169 10.8404 92.2221 9.6662C92.7189 8.83521 93.4234 8.37456 94.3267 8.28424C94.3808 8.26617 94.417 8.23907 94.4621 8.21197Z" fill="#232221"/>
<path opacity="0.96" fill-rule="evenodd" clip-rule="evenodd" d="M123.745 6.98113C125.434 6.8908 126.816 7.52308 127.881 8.85988C127.592 9.13989 127.285 9.38376 126.942 9.59151C126.653 9.27537 126.346 8.99537 126.003 8.73343C124.774 8.01986 123.591 8.05599 122.444 8.85084C121.649 9.62764 121.243 10.576 121.215 11.687C121.062 12.8432 121.134 13.9813 121.423 15.1103C121.929 16.6278 122.968 17.3233 124.539 17.1968C125.163 17.0433 125.786 16.9168 126.418 16.7994V13.5838H124.088C124.079 13.1774 124.088 12.78 124.124 12.3825C125.37 12.3645 126.626 12.3554 127.872 12.3645C127.872 14.0264 127.872 15.6794 127.854 17.3413C126.445 18.353 124.955 18.7052 123.392 18.4162C122.146 18.2175 121.188 17.5672 120.502 16.4652C120.104 15.7245 119.852 14.9477 119.734 14.1348C119.644 13.3038 119.635 12.4729 119.698 11.6509C119.806 10.5128 120.186 9.51021 120.845 8.62503C121.604 7.72179 122.57 7.18888 123.736 7.01726L123.745 6.98113Z" fill="#232221"/>
<path opacity="0.83" fill-rule="evenodd" clip-rule="evenodd" d="M138.242 6.98169C139.524 6.9275 140.103 7.5417 139.985 8.81528C139.678 9.61916 139.1 9.95337 138.242 9.82691C137.501 9.67336 137.131 9.21271 137.131 8.44495C137.149 7.68622 137.519 7.18943 138.242 6.97266V6.98169ZM138.359 7.2888C139.353 7.27073 139.795 7.75848 139.678 8.74301C139.615 8.97786 139.488 9.16755 139.299 9.3211C139.163 9.08625 139.019 8.86044 138.856 8.65269C139.001 8.50817 139.145 8.36366 139.299 8.2101C139.299 7.92107 139.145 7.74945 138.856 7.69525C138.603 7.67719 138.35 7.66816 138.088 7.67719V9.40239H138.359C138.368 9.18561 138.368 8.96883 138.359 8.75205C138.468 8.65269 138.558 8.67076 138.648 8.78818C138.766 8.97786 138.892 9.16754 139.01 9.36626C139.055 9.39335 139.109 9.41142 139.163 9.42045C138.983 9.47464 138.793 9.51077 138.612 9.55594C137.718 9.46561 137.348 8.95077 137.501 8.02946C137.673 7.623 137.953 7.38815 138.359 7.29782V7.2888ZM138.359 7.97526C138.567 7.97526 138.757 8.04752 138.937 8.18301C138.838 8.2372 138.73 8.28236 138.63 8.33656C138.54 8.36365 138.45 8.36366 138.359 8.3185C138.377 8.21011 138.377 8.09268 138.359 7.97526Z" fill="#262221"/>
<path opacity="0.62" fill-rule="evenodd" clip-rule="evenodd" d="M16.5752 7.28833C14.5429 7.27929 12.5196 7.28832 10.4873 7.32445C10.4873 7.28832 10.4963 7.2522 10.5234 7.2251C11.5351 7.2251 12.5377 7.21606 13.5493 7.20703C14.57 7.20703 15.5816 7.23413 16.5752 7.27929V7.28833Z" fill="#B14F2A"/>
<path opacity="0.12" fill-rule="evenodd" clip-rule="evenodd" d="M24.8396 7.25391C24.8938 7.27197 24.9209 7.3081 24.9119 7.37133C24.8577 7.35326 24.8306 7.31713 24.8396 7.25391Z" fill="#713E2A"/>
<path opacity="0.35" fill-rule="evenodd" clip-rule="evenodd" d="M2.41113 7.37109C2.41113 7.42529 2.38403 7.47045 2.33887 7.48851C2.33887 7.43432 2.36596 7.38916 2.41113 7.37109Z" fill="#975339"/>
<path opacity="0.98" fill-rule="evenodd" clip-rule="evenodd" d="M37.5114 14.7135C37.1501 14.7045 36.7888 14.7135 36.4365 14.7496C36.4456 15.9871 36.4365 17.2245 36.4004 18.462C35.4881 18.5071 34.5578 18.5071 33.6094 18.462C33.6003 16.6284 33.5823 14.7858 33.5732 12.9522C33.5732 11.1005 33.5823 9.24887 33.6274 7.40625C35.0365 7.44238 36.4546 7.44238 37.8727 7.40625C38.7488 7.45141 39.5708 7.66819 40.3386 8.07465C41.3412 8.77918 41.8289 9.74565 41.7928 10.9831C41.7928 12.6631 41.016 13.7922 39.4805 14.3703C38.8301 14.6141 38.1708 14.7316 37.5114 14.7135ZM36.4365 9.62823C36.7978 9.62823 37.1682 9.62823 37.5475 9.64629C37.8546 9.67339 38.1346 9.79082 38.3875 9.98953C38.5411 10.1702 38.6404 10.387 38.6766 10.6218C38.7669 11.1276 38.6766 11.6063 38.4056 12.0399C38.1166 12.347 37.7553 12.5276 37.3307 12.5728C37.0507 12.5276 36.7617 12.5276 36.4727 12.5728C36.4365 11.5883 36.4185 10.6128 36.4365 9.62823Z" fill="#222221"/>
<path opacity="0.98" fill-rule="evenodd" clip-rule="evenodd" d="M43.4453 7.40869C44.2853 7.41773 45.1253 7.43579 45.9744 7.44482C46.0105 9.91971 46.0286 12.3946 46.0286 14.8695C46.2454 15.7005 46.7693 16.0979 47.6183 16.0527C47.9435 16.0708 48.2506 15.9895 48.5396 15.7998C48.8377 15.4747 48.9822 15.0772 48.9822 14.6347C48.9912 12.232 49.0093 9.83842 49.0183 7.43579C49.9577 7.41773 50.888 7.41773 51.8094 7.43579C51.8274 10.1455 51.8365 12.8372 51.8274 15.5289C51.4481 17.0373 50.5087 17.9676 49.0183 18.3018C48.7383 18.3651 48.4403 18.4283 48.1422 18.4915H47.0312C46.8957 18.4102 46.7602 18.3921 46.6067 18.4554C46.408 18.3921 46.2183 18.347 46.0286 18.3018C44.3305 17.9225 43.4453 16.8386 43.3911 15.0501C43.3911 13.7766 43.3821 12.512 43.373 11.2384C43.373 9.94681 43.4001 8.6642 43.4453 7.39062V7.40869Z" fill="#222221"/>
<path opacity="0.98" fill-rule="evenodd" clip-rule="evenodd" d="M57.3743 14.7496C57.0943 14.6954 56.8143 14.6954 56.5343 14.7496C56.4891 15.96 56.4891 17.1613 56.5343 18.3626C56.5072 18.4078 56.4891 18.4439 56.4801 18.4981C55.64 18.4981 54.791 18.4981 53.9329 18.48L53.8787 18.4258C53.8516 14.7767 53.8516 11.1276 53.8787 7.47851C53.9058 7.45141 53.9329 7.42431 53.951 7.40625C55.3329 7.42431 56.7239 7.42431 58.124 7.40625C58.8827 7.45141 59.5872 7.64109 60.2466 7.95723C61.2582 8.59853 61.8002 9.51081 61.8905 10.7121C61.9357 12.076 61.3847 13.169 60.2466 13.9999C60.5266 14.3251 60.7705 14.6774 60.9963 15.0567C61.4298 16.1045 61.8453 17.1523 62.2428 18.2181C62.306 18.2903 62.3241 18.3716 62.297 18.471C61.2763 18.5252 60.2556 18.5252 59.253 18.471C58.8737 17.4503 58.4853 16.4477 58.0878 15.4451C57.844 15.2193 57.6091 14.9935 57.3833 14.7587L57.3743 14.7496ZM56.7239 9.62823C57.0672 9.62823 57.4104 9.62823 57.7536 9.64629C58.7111 9.81791 59.1175 10.396 58.955 11.3896C58.8646 11.9225 58.5666 12.2747 58.0517 12.4464C57.853 12.4825 57.6543 12.5276 57.4556 12.5818C57.2117 12.5728 56.9678 12.5547 56.7239 12.5457C56.7059 11.5792 56.6968 10.6037 56.7059 9.63727L56.7239 9.62823Z" fill="#222221"/>
<path opacity="0.98" fill-rule="evenodd" clip-rule="evenodd" d="M63.9586 7.40747C66.3703 7.4436 68.7729 7.46167 71.1755 7.4436C71.2026 7.48876 71.2207 7.54296 71.2297 7.59715C71.2297 8.33781 71.2207 9.07847 71.1936 9.81913C69.7123 9.85526 68.231 9.87333 66.7496 9.87333C66.8038 10.4514 66.8038 11.0205 66.7496 11.5985C67.9871 11.6076 69.2245 11.6256 70.462 11.6347C70.4891 12.0321 70.4981 12.4385 70.4981 12.836C70.4981 13.2424 70.4891 13.6399 70.462 14.0373C69.2245 14.0463 67.9871 14.0644 66.7496 14.0734C66.8038 14.6515 66.8038 15.2205 66.7496 15.7986C68.231 15.7986 69.7123 15.8257 71.1936 15.8528C71.2117 16.7109 71.2297 17.5509 71.2297 18.3819C71.2026 18.4271 71.1755 18.4632 71.1304 18.4993C68.7548 18.5083 66.3612 18.4993 63.9586 18.4632C63.9044 14.7779 63.9044 11.0837 63.9586 7.39844V7.40747Z" fill="#222221"/>
<path opacity="0.96" fill-rule="evenodd" clip-rule="evenodd" d="M81.7165 7.40625C84.2547 7.45141 86.7837 7.45141 89.3128 7.40625C89.349 7.45141 89.3851 7.49658 89.4122 7.54174C89.4212 7.93013 89.4122 8.31853 89.3761 8.70692C88.3193 8.70692 87.2805 8.70692 86.2599 8.67079C86.2147 8.69789 86.1695 8.73402 86.1244 8.77015C86.1515 10.3779 86.1605 11.9947 86.1605 13.6115C86.1605 15.2464 86.1515 16.8813 86.1063 18.5071C85.7179 18.5162 85.3205 18.5071 84.9231 18.471C84.914 15.2013 84.896 11.9405 84.8869 8.67079C83.8121 8.69789 82.7372 8.70692 81.6533 8.70692C81.6533 8.33659 81.6533 7.95723 81.6172 7.57787C81.6443 7.51464 81.6804 7.45141 81.7346 7.40625H81.7165Z" fill="#232221"/>
<path opacity="0.96" fill-rule="evenodd" clip-rule="evenodd" d="M107.016 17.6698C106.519 16.7214 106.058 15.7459 105.616 14.7613C105.453 14.4994 105.218 14.3459 104.911 14.3007C104.098 14.2465 103.276 14.2465 102.463 14.3007C102.472 15.6917 102.463 17.0827 102.427 18.4737C101.967 18.5098 101.497 18.5188 101.027 18.5098C101.018 18.4827 101 18.4556 100.991 18.4376C100.964 14.7884 100.964 11.1393 100.991 7.49022C101.018 7.46313 101.045 7.43603 101.063 7.41797C102.4 7.43603 103.737 7.43603 105.083 7.41797C107.594 7.54442 108.732 8.87219 108.488 11.4013C108.298 12.6116 107.639 13.4787 106.519 13.9846C106.826 14.0387 107.052 14.2104 107.187 14.4994C107.711 15.7188 108.226 16.9472 108.741 18.1756C108.741 18.2479 108.705 18.293 108.623 18.293C108.226 18.284 107.829 18.284 107.44 18.293C107.35 18.275 107.278 18.2208 107.232 18.1395C107.169 17.9769 107.097 17.8233 107.025 17.6788L107.016 17.6698ZM102.463 8.43863C103.087 8.4567 103.683 8.4567 104.243 8.43863C104.685 8.4567 105.128 8.51089 105.561 8.61025C106.456 8.88122 106.943 9.48639 107.034 10.4258C107.232 12.0245 106.537 12.9549 104.947 13.1987C104.116 13.2529 103.285 13.271 102.463 13.2529V8.4296V8.43863Z" fill="#232221"/>
<path opacity="0.96" fill-rule="evenodd" clip-rule="evenodd" d="M113.908 7.40625C114.422 7.41528 114.946 7.41528 115.461 7.40625C115.533 7.47851 115.588 7.56884 115.615 7.67723C116.906 11.2631 118.198 14.849 119.499 18.4349C119.463 18.471 119.417 18.4981 119.363 18.5071C118.921 18.5162 118.478 18.5071 118.045 18.471C117.629 17.3239 117.25 16.1587 116.897 14.9845H112.453C112.11 16.1768 111.722 17.3419 111.306 18.471C110.918 18.5071 110.53 18.5162 110.141 18.5071C110.141 18.471 110.132 18.4439 110.123 18.4078C111.315 14.84 112.526 11.2721 113.736 7.71335C113.772 7.59593 113.826 7.49657 113.908 7.40625ZM116.355 13.9096C115.235 13.9457 114.115 13.9638 112.986 13.9457C113.492 12.2205 114.016 10.4953 114.558 8.77918C115.172 10.4682 115.768 12.1844 116.355 13.9096Z" fill="#232221"/>
<path opacity="0.95" fill-rule="evenodd" clip-rule="evenodd" d="M136.218 18.4632C134.204 18.4722 132.181 18.4632 130.176 18.4271C130.176 14.787 130.158 11.1379 130.14 7.49779C130.176 7.46167 130.203 7.43457 130.239 7.39844H136.209C136.209 7.39844 136.246 7.42554 136.264 7.43457C136.318 7.85006 136.318 8.26555 136.264 8.68104C134.719 8.69008 133.175 8.69911 131.648 8.69911C131.621 9.81914 131.621 10.9482 131.648 12.0682C132.94 12.0863 134.231 12.0863 135.514 12.0682C135.559 12.285 135.577 12.5108 135.568 12.7366C135.568 12.9444 135.559 13.1611 135.55 13.3689C134.258 13.3689 132.958 13.3599 131.666 13.3508C131.639 13.9921 131.63 14.6334 131.63 15.2838C131.63 15.9431 131.639 16.5935 131.684 17.2348C133.202 17.1896 134.728 17.1806 136.255 17.2167C136.282 17.4245 136.291 17.6322 136.291 17.849C136.291 18.0658 136.264 18.2735 136.218 18.4632Z" fill="#232221"/>
<path opacity="0.12" fill-rule="evenodd" clip-rule="evenodd" d="M16.8818 7.83203C16.8818 7.83203 16.9451 7.86816 16.9541 7.90429C16.8999 7.90429 16.8818 7.87719 16.8818 7.83203Z" fill="#4C2A1C"/>
<path opacity="0.12" fill-rule="evenodd" clip-rule="evenodd" d="M26.1043 9.42969C26.1584 9.44775 26.1855 9.48389 26.1765 9.54711C26.1223 9.52905 26.0952 9.49291 26.1043 9.42969Z" fill="#713E2A"/>
<path opacity="0.35" fill-rule="evenodd" clip-rule="evenodd" d="M1.15624 9.54688C1.15624 9.60107 1.12915 9.64623 1.08398 9.66429C1.08398 9.6101 1.11108 9.56494 1.15624 9.54688Z" fill="#975339"/>
<path opacity="0.62" fill-rule="evenodd" clip-rule="evenodd" d="M26.4922 10.125C26.5464 10.1521 26.5825 10.1882 26.6096 10.2424C26.5373 10.2424 26.4922 10.2063 26.4922 10.125Z" fill="#9A4A2B"/>
<path opacity="0.12" fill-rule="evenodd" clip-rule="evenodd" d="M0.496088 10.6953C0.496088 10.6953 0.459958 10.7585 0.423828 10.7676C0.423828 10.7134 0.450925 10.6953 0.496088 10.6953Z" fill="#4C2A1C"/>
<path opacity="0.12" fill-rule="evenodd" clip-rule="evenodd" d="M8.19238 11.2383C8.19238 11.2925 8.16528 11.3105 8.12012 11.3105C8.12915 11.2744 8.15625 11.2473 8.19238 11.2383Z" fill="#4C2A1C"/>
<path opacity="0.35" fill-rule="evenodd" clip-rule="evenodd" d="M27.025 11.1914C27.0702 11.2817 27.0973 11.3811 27.0973 11.4985C27.0341 11.4082 27.007 11.3088 27.025 11.1914Z" fill="#CF6A43"/>
<path opacity="0.35" fill-rule="evenodd" clip-rule="evenodd" d="M0.117181 11.5C0.117181 11.5542 0.0900841 11.5994 0.0449219 11.6174C0.0449219 11.5632 0.0720191 11.5181 0.117181 11.5Z" fill="#975339"/>
<path opacity="0.35" fill-rule="evenodd" clip-rule="evenodd" d="M27.143 11.7695C27.143 11.7695 27.1972 11.8599 27.2152 11.9231C27.2152 11.9502 27.1972 11.9592 27.1791 11.9592C27.152 11.896 27.1339 11.8328 27.143 11.7695Z" fill="#A1593D"/>
<path opacity="0.12" fill-rule="evenodd" clip-rule="evenodd" d="M7.69628 12.0781C7.69628 12.1323 7.66919 12.1504 7.62402 12.1504C7.63306 12.1143 7.66015 12.0872 7.69628 12.0781Z" fill="#4C2A1C"/>
<path opacity="0.35" fill-rule="evenodd" clip-rule="evenodd" d="M27.2146 12.9531C27.2146 13.0434 27.1875 13.1157 27.1423 13.1789C27.1333 13.0886 27.1604 13.0073 27.2146 12.9531Z" fill="#9B573C"/>
<path opacity="0.35" fill-rule="evenodd" clip-rule="evenodd" d="M0 13.2227C0.0632271 13.2678 0.0903244 13.331 0.0722595 13.4123C0.0361297 13.3581 0.00903245 13.2949 0 13.2227Z" fill="#A1593D"/>
<path opacity="0.62" fill-rule="evenodd" clip-rule="evenodd" d="M27.1423 13.3789C27.1242 13.4783 27.0971 13.5686 27.07 13.6499C27.0519 13.5415 27.07 13.4512 27.1423 13.3789Z" fill="#AA4C27"/>
<path opacity="0.35" fill-rule="evenodd" clip-rule="evenodd" d="M18.7607 13.8008C18.7607 13.855 18.7336 13.9001 18.6885 13.9182C18.6885 13.864 18.7156 13.8188 18.7607 13.8008Z" fill="#975339"/>
<path opacity="0.12" fill-rule="evenodd" clip-rule="evenodd" d="M116.355 13.9102C116.355 13.9102 116.392 13.9282 116.392 13.9463C115.813 13.9553 115.244 13.9734 114.666 13.9824C114.079 13.9824 113.519 13.9734 112.986 13.9463C114.115 13.9553 115.235 13.9463 116.355 13.9102Z" fill="#4C2A1C"/>
<path opacity="0.12" fill-rule="evenodd" clip-rule="evenodd" d="M0.307265 13.9922C0.307265 13.9922 0.352426 14.0283 0.343394 14.0644C0.280167 14.0464 0.271135 14.0193 0.307265 13.9922Z" fill="#4C2A1C"/>
<path opacity="0.12" fill-rule="evenodd" clip-rule="evenodd" d="M102.465 14.2985C103.278 14.2443 104.1 14.2443 104.913 14.2985C104.1 14.2985 103.287 14.2985 102.465 14.2985Z" fill="#4C2A1C"/>
<path opacity="0.35" fill-rule="evenodd" clip-rule="evenodd" d="M18.4893 14.2539C18.4893 14.3081 18.4622 14.3533 18.417 14.3713C18.417 14.3171 18.4441 14.272 18.4893 14.2539Z" fill="#975339"/>
<path opacity="0.12" fill-rule="evenodd" clip-rule="evenodd" d="M36.4365 14.7502C36.7888 14.7141 37.1411 14.6961 37.5114 14.7141C37.4301 14.7412 37.3488 14.7683 37.2585 14.7864C36.9875 14.7683 36.7075 14.7502 36.4365 14.7502Z" fill="#4C2A1C"/>
<path opacity="0.12" fill-rule="evenodd" clip-rule="evenodd" d="M56.5342 14.7516C56.8142 14.6974 57.0942 14.6974 57.3742 14.7516C57.0942 14.7696 56.8142 14.7696 56.5342 14.7516Z" fill="#4C2A1C"/>
<path opacity="0.35" fill-rule="evenodd" clip-rule="evenodd" d="M18.2187 14.7148C18.2187 14.769 18.1916 14.8142 18.1465 14.8323C18.1465 14.7781 18.1736 14.7329 18.2187 14.7148Z" fill="#975339"/>
<path opacity="0.12" fill-rule="evenodd" clip-rule="evenodd" d="M0.803711 14.8672C0.803711 14.8672 0.866938 14.9033 0.87597 14.9394C0.821776 14.9394 0.803711 14.9123 0.803711 14.8672Z" fill="#4C2A1C"/>
<path opacity="0.12" fill-rule="evenodd" clip-rule="evenodd" d="M1.0752 15.3281C1.0752 15.3281 1.13842 15.3643 1.14745 15.4004C1.09326 15.4004 1.0752 15.3733 1.0752 15.3281Z" fill="#4C2A1C"/>
<path opacity="0.12" fill-rule="evenodd" clip-rule="evenodd" d="M9.15015 15.293C9.20434 15.311 9.23144 15.3472 9.22241 15.4104C9.16821 15.3923 9.14112 15.3562 9.15015 15.293Z" fill="#713E2A"/>
<path opacity="0.12" fill-rule="evenodd" clip-rule="evenodd" d="M1.41797 15.9414C1.4812 15.9504 1.49926 15.9956 1.49023 16.0588C1.4541 16.0317 1.427 15.9866 1.41797 15.9414Z" fill="#713E2A"/>
<path opacity="0.12" fill-rule="evenodd" clip-rule="evenodd" d="M25.417 16.4375C25.417 16.4917 25.3899 16.5098 25.3447 16.5098C25.3538 16.4736 25.3809 16.4465 25.417 16.4375Z" fill="#4C2A1C"/>
<path opacity="0.12" fill-rule="evenodd" clip-rule="evenodd" d="M9.79956 16.4375C9.85376 16.4556 9.88086 16.4917 9.87182 16.5549C9.81763 16.5369 9.79053 16.5007 9.79956 16.4375Z" fill="#713E2A"/>
<path opacity="0.12" fill-rule="evenodd" clip-rule="evenodd" d="M25.1914 16.7461C25.1914 16.8003 25.1643 16.8184 25.1191 16.8184C25.1282 16.7822 25.1553 16.7551 25.1914 16.7461Z" fill="#4C2A1C"/>
<path opacity="0.12" fill-rule="evenodd" clip-rule="evenodd" d="M24.8027 17.125C24.8027 17.1792 24.7756 17.1973 24.7305 17.1973C24.7395 17.1611 24.7666 17.134 24.8027 17.125Z" fill="#42271E"/>
<path opacity="0.62" fill-rule="evenodd" clip-rule="evenodd" d="M16.8816 18.0098H16.457C16.457 18.0098 16.4751 17.9646 16.4932 17.9556C16.6015 17.9556 16.7009 17.9556 16.8003 17.9375C16.8454 17.9465 16.8725 17.9736 16.8725 18.0098H16.8816Z" fill="#DB6233"/>
<path opacity="0.62" fill-rule="evenodd" clip-rule="evenodd" d="M17.6496 18.0098H16.918C16.918 18.0098 16.9451 17.9465 16.9902 17.9375C17.1799 17.9917 17.3696 17.9917 17.5683 17.9375C17.6135 17.9465 17.6406 17.9736 17.6406 18.0098H17.6496Z" fill="#DD6232"/>
<path opacity="0.62" fill-rule="evenodd" clip-rule="evenodd" d="M18.4172 18.0098H17.6855C17.6855 18.0098 17.7126 17.9465 17.7578 17.9375C17.9475 17.9917 18.1372 17.9917 18.3359 17.9375C18.381 17.9465 18.4081 17.9736 18.4081 18.0098H18.4172Z" fill="#DD6232"/>
<path opacity="0.62" fill-rule="evenodd" clip-rule="evenodd" d="M19.176 18.0098H18.4443C18.4443 18.0098 18.4714 17.9465 18.5166 17.9375C18.7063 17.9917 18.896 17.9917 19.0947 17.9375C19.1398 17.9465 19.1669 17.9736 19.1669 18.0098H19.176Z" fill="#DD6232"/>
<path opacity="0.62" fill-rule="evenodd" clip-rule="evenodd" d="M19.9435 18.0098H19.2119C19.2119 18.0098 19.239 17.9465 19.2842 17.9375C19.4739 17.9917 19.6635 17.9917 19.8623 17.9375C19.9074 17.9465 19.9345 17.9736 19.9345 18.0098H19.9435Z" fill="#DD6232"/>
<path opacity="0.62" fill-rule="evenodd" clip-rule="evenodd" d="M20.7111 18.0098H19.9795C19.9795 18.0098 20.0066 17.9465 20.0518 17.9375C20.2414 17.9917 20.4311 17.9917 20.6298 17.9375C20.675 17.9465 20.7021 17.9736 20.7021 18.0098H20.7111Z" fill="#DD6232"/>
<path opacity="0.62" fill-rule="evenodd" clip-rule="evenodd" d="M21.4787 18.0098H20.7471C20.7471 18.0098 20.7742 17.9465 20.8193 17.9375C21.009 17.9917 21.1987 17.9917 21.3974 17.9375C21.4426 17.9465 21.4697 17.9736 21.4697 18.0098H21.4787Z" fill="#DD6232"/>
<path opacity="0.62" fill-rule="evenodd" clip-rule="evenodd" d="M22.2375 18.0098H21.5059C21.5059 18.0098 21.533 17.9465 21.5781 17.9375C21.7678 17.9917 21.9575 17.9917 22.1562 17.9375C22.2014 17.9465 22.2285 17.9736 22.2285 18.0098H22.2375Z" fill="#DD6232"/>
<path opacity="0.62" fill-rule="evenodd" clip-rule="evenodd" d="M23.0783 17.9283C23.006 17.9644 22.9157 17.9825 22.8254 18.0005C22.6447 18.0005 22.4641 18.0005 22.2744 18.0005C22.5273 17.9283 22.7983 17.9012 23.0783 17.9283Z" fill="#BB542D"/>
<path opacity="0.12" fill-rule="evenodd" clip-rule="evenodd" d="M130.166 18.4258C132.18 18.4619 134.195 18.48 136.209 18.4619C135.206 18.489 134.204 18.498 133.183 18.498C132.162 18.498 131.151 18.4709 130.157 18.4258H130.166Z" fill="#4C2A1C"/>
<path opacity="0.12" fill-rule="evenodd" clip-rule="evenodd" d="M11.1013 18.7344C11.1555 18.7524 11.1826 18.7886 11.1736 18.8518C11.1194 18.8337 11.0923 18.7976 11.1013 18.7344Z" fill="#713E2A"/>
<path opacity="0.12" fill-rule="evenodd" clip-rule="evenodd" d="M11.7507 19.8789C11.8049 19.897 11.832 19.9331 11.823 19.9963C11.7688 19.9783 11.7417 19.9421 11.7507 19.8789Z" fill="#713E2A"/>
<path opacity="0.12" fill-rule="evenodd" clip-rule="evenodd" d="M5.0127 22.1406C5.0127 22.1406 5.07592 22.1768 5.08495 22.2129C5.03076 22.2129 5.0127 22.1858 5.0127 22.1406Z" fill="#4C2A1C"/>
<path opacity="0.12" fill-rule="evenodd" clip-rule="evenodd" d="M5.2832 22.6016C5.2832 22.6016 5.34643 22.6377 5.35546 22.6738C5.30127 22.6738 5.2832 22.6467 5.2832 22.6016Z" fill="#4C2A1C"/>
<path opacity="0.12" fill-rule="evenodd" clip-rule="evenodd" d="M13.3953 22.7891C13.4495 22.8071 13.4766 22.8433 13.4675 22.9065C13.4133 22.8884 13.3862 22.8523 13.3953 22.7891Z" fill="#713E2A"/>
<path opacity="0.62" fill-rule="evenodd" clip-rule="evenodd" d="M6.3584 24.0195C6.45776 24.0195 6.53001 24.0737 6.54808 24.1731C6.47582 24.1279 6.41259 24.0828 6.3584 24.0195Z" fill="#CB633B"/>
<path opacity="0.12" fill-rule="evenodd" clip-rule="evenodd" d="M6.77441 24.2891C6.82861 24.2891 6.87377 24.3071 6.89184 24.3613C6.83764 24.3613 6.79248 24.3433 6.77441 24.2891Z" fill="#713E2A"/>
<path opacity="0.12" fill-rule="evenodd" clip-rule="evenodd" d="M14.3523 24.4766C14.4065 24.4946 14.4336 24.5308 14.4246 24.594C14.3704 24.5759 14.3433 24.5398 14.3523 24.4766Z" fill="#713E2A"/>
<path opacity="0.12" fill-rule="evenodd" clip-rule="evenodd" d="M7.81348 24.6673C7.85864 24.6583 7.9038 24.6673 7.9309 24.7035C7.9309 24.7215 7.9309 24.7305 7.91283 24.7396C7.8767 24.7215 7.84057 24.6944 7.81348 24.6673Z" fill="#4C2A1C"/>
<path opacity="0.12" fill-rule="evenodd" clip-rule="evenodd" d="M8.19262 24.7031C8.19262 24.7031 8.21972 24.7573 8.22875 24.7754C8.18359 24.7844 8.13843 24.7754 8.11133 24.7393C8.13843 24.7302 8.16552 24.7122 8.18359 24.7031H8.19262Z" fill="#4C2A1C"/>
<path opacity="0.35" fill-rule="evenodd" clip-rule="evenodd" d="M8.19238 24.7031C10.2879 24.7031 12.3834 24.7031 14.4699 24.7031C12.4015 24.7754 10.324 24.8025 8.22851 24.7754C8.21948 24.7483 8.20142 24.7212 8.19238 24.7031Z" fill="#FE8C60"/>
</svg>
