<svg width="140" height="39" viewBox="0 0 140 39" fill="none" xmlns="http://www.w3.org/2000/svg">
<path d="M137.525 0.465321C127.111 0.465321 126.668 5.135 126.668 11.7195V27.8873H129.125V11.7195C129.125 6.7608 128.926 2.77758 137.525 2.77758C138.446 2.77758 139.268 2.82274 140 2.91306V0.573711C139.241 0.510485 138.419 0.474355 137.525 0.474355V0.465321Z" fill="#231F20"/>
<path d="M16.0232 17.3737V1.00726H18.5252V17.4189C18.5252 22.1337 18.48 26.1169 27.1239 26.1169C35.7677 26.1169 35.5239 22.1337 35.5239 17.175V1.00726H37.9806V17.175C37.9806 23.7595 37.5381 28.4292 27.1239 28.4292C16.7097 28.4292 16.0142 23.7595 16.0142 17.3737H16.0232Z" fill="#231F20"/>
<path d="M64.111 11.5208V27.8873H61.609V11.4756C61.609 6.76081 61.6542 2.77758 53.0103 2.77758C44.3665 2.77758 44.6103 6.7608 44.6103 11.7195V27.8873H42.1535V11.7195C42.1535 5.135 42.5961 0.465321 53.0103 0.465321C63.4245 0.465321 64.111 5.135 64.111 11.5208Z" fill="#231F20"/>
<path d="M68.6632 1.06145H71.0658V27.8873H68.6632V1.06145Z" fill="#231F20"/>
<path d="M75.5729 1.06145H88.1368C94.369 1.06145 97.1871 4.15952 97.1871 9.66016C97.1871 15.1608 94.3961 18.566 88.1006 18.566H77.9845V27.8873H75.5819V1.06145H75.5729ZM88.1729 16.1544C92.5084 16.1544 94.6671 14.0408 94.6671 9.76855C94.6671 5.49629 92.3368 3.47306 88.0645 3.47306H77.9845V16.1634H88.1729V16.1544Z" fill="#231F20"/>
<path d="M99.9871 14.375C99.9871 6.46274 102.245 0.375 112.37 0.375C122.495 0.375 123.182 7.40209 123.128 14.8176H102.39C102.435 21.3569 104.061 26.2163 112.56 26.2163C117.076 26.2163 119.145 24.9879 121.357 23.3621L122.73 25.1776C120.274 26.9931 117.374 28.4202 112.56 28.4202C101.947 28.4202 99.9781 22.2782 99.9781 14.366L99.9871 14.375ZM102.444 12.5505H120.725C120.481 7.19435 120.138 2.62403 112.325 2.62403C104.512 2.62403 102.742 6.70661 102.453 12.5505H102.444Z" fill="#231F20"/>
<path d="M0.930323 33.704C11.3445 33.704 11.7871 29.0344 11.7871 22.4498V1.00726H9.33032V22.4498C9.33032 27.4085 9.52903 31.3918 0.930323 31.3918C0.605162 31.3918 0.298065 31.3918 0 31.3737V33.686C0.298065 33.686 0.614194 33.695 0.930323 33.695V33.704Z" fill="#231F20"/>
<path d="M134.499 28.0046C133.56 28.0046 132.801 27.2459 132.801 26.3065C132.801 25.3672 133.56 24.6085 134.499 24.6085C135.439 24.6085 136.197 25.3672 136.197 26.3065C136.197 27.2459 135.439 28.0046 134.499 28.0046ZM134.499 24.8253C133.686 24.8253 133.018 25.4846 133.018 26.3065C133.018 27.1285 133.677 27.7788 134.499 27.7788C135.321 27.7788 135.972 27.1194 135.972 26.3065C135.972 25.4936 135.312 24.8253 134.499 24.8253Z" fill="#231F20"/>
<path d="M134.066 26.5324V27.282H133.804V25.3311H134.671C135.168 25.3311 135.357 25.5298 135.357 25.9182C135.357 26.2343 135.222 26.4511 134.888 26.5143L135.33 27.282H135.05L134.617 26.5324H134.066ZM134.671 26.2885C134.933 26.2885 135.086 26.2072 135.086 25.9272C135.086 25.6472 134.942 25.584 134.662 25.584H134.066V26.2885H134.671Z" fill="#231F20"/>
<path d="M68.663 31.0937H69.5211L73.956 37.1996V31.0937H74.7147V38.5002H73.9921L69.4218 32.2137V38.5002H68.663V31.0937Z" fill="#231F20"/>
<path d="M81.5069 31.0937V31.8434H77.3972V34.2912H81.4076V35.0318H77.3972V37.7776H81.5431V38.5002H76.6024V31.0937H81.5069Z" fill="#231F20"/>
<path d="M85.4811 31.8434H82.6992V31.0937H89.0489V31.8434H86.2669V38.5002H85.4811V31.8434Z" fill="#231F20"/>
<path d="M90.0063 31.0937H90.8192L92.7701 37.2266L94.7572 31.0937H95.4347L97.4127 37.2266L99.3727 31.0937H100.131L97.7469 38.5544H97.0695L95.0734 32.3854L93.0863 38.5544H92.3998L90.0063 31.0937Z" fill="#231F20"/>
<path d="M100.845 34.797C100.845 32.1596 102.191 30.9763 104.566 30.9763C106.942 30.9763 108.306 32.1596 108.306 34.797C108.306 37.4344 106.942 38.6266 104.566 38.6266C102.191 38.6266 100.845 37.4434 100.845 34.797ZM107.52 34.806C107.52 32.8099 106.59 31.726 104.566 31.726C102.543 31.726 101.64 32.8099 101.64 34.806C101.64 36.8021 102.561 37.895 104.566 37.895C106.571 37.895 107.52 36.8112 107.52 34.806Z" fill="#231F20"/>
<path d="M112.912 35.4834H110.69V38.5002H109.922V31.0937H113.12C114.836 31.0937 115.622 31.7802 115.622 33.2525C115.622 34.535 115.008 35.2847 113.725 35.4563L115.513 38.5092H114.673L112.912 35.4925V35.4834ZM113.129 34.7608C114.177 34.7608 114.827 34.4447 114.827 33.2705C114.827 32.0963 114.195 31.8254 113.093 31.8254H110.681V34.7608H113.129Z" fill="#231F20"/>
<path d="M119.551 34.5712L118.07 36.1879V38.5002H117.302V31.0937H118.07V35.1854L121.818 31.0937H122.73L120.075 34.0021L123.091 38.5002H122.197L119.551 34.5712Z" fill="#231F20"/>
<path d="M123.751 37.7505L124.148 37.1544C125.033 37.7144 125.91 37.9041 126.795 37.9041C128.321 37.9041 129.008 37.4705 129.008 36.4499C129.008 35.4292 128.131 35.2486 126.795 35.0137C125.196 34.7337 124.112 34.4628 124.112 32.9634C124.112 31.4641 125.033 30.9763 126.795 30.9763C127.951 30.9763 128.782 31.2383 129.378 31.6357L128.962 32.277C128.43 31.9247 127.644 31.6989 126.804 31.6989C125.476 31.6989 124.907 32.0692 124.907 32.9454C124.907 33.8847 125.675 34.0654 126.993 34.3092C128.61 34.5983 129.784 34.8421 129.784 36.4318C129.784 37.9041 128.845 38.6086 126.822 38.6086C125.702 38.6086 124.69 38.3828 123.751 37.7596V37.7505Z" fill="#231F20"/>
</svg>
