<svg width="140" height="35" viewBox="0 0 140 35" fill="none" xmlns="http://www.w3.org/2000/svg">
<path fill-rule="evenodd" clip-rule="evenodd" d="M137.462 0.015625H107.63C106.212 0.015625 105.002 1.14458 105.002 2.52643V32.4755C105.002 33.8663 105.797 34.9863 107.224 34.9863H137.046C138.473 34.9863 140 33.8663 140 32.4755V2.52643C140 1.14458 138.889 0.015625 137.471 0.015625H137.462Z" fill="white"/>
<path fill-rule="evenodd" clip-rule="evenodd" d="M139.992 2.52643V32.4755C139.992 33.8663 138.475 34.9863 137.039 34.9863H107.216C105.789 34.9863 104.994 33.8663 104.994 32.4755V2.52643C104.994 1.14458 106.204 0.015625 107.622 0.015625H137.454C138.872 0.015625 139.983 1.14458 139.983 2.52643H139.992ZM118.325 30.0008H123.328V21.9897C123.328 19.1989 124.53 17.5009 127.05 17.5009C129.118 17.5009 130.003 19.4518 130.003 21.6646V30.0008H135.006V20.7524C135.006 15.794 133.607 13.1296 128.567 13.1296C125.948 13.1296 123.825 14.4392 123.103 15.7398H123.058V13.3373H118.343V30.0008H118.325ZM109.998 30.0008H115.001V13.3373H109.998V30.0008ZM114.703 5.30819C114.107 4.72113 113.321 4.39599 112.49 4.39599C111.66 4.39599 110.865 4.72113 110.287 5.30819C109.691 5.90428 109.365 6.69003 109.365 7.52095C109.365 8.35186 109.691 9.14665 110.287 9.72468C110.874 10.3117 111.66 10.6369 112.49 10.6369C113.321 10.6369 114.125 10.3117 114.703 9.72468C115.281 9.13762 115.615 8.34283 115.615 7.51192C115.615 6.681 115.29 5.88622 114.703 5.30819Z" fill="#0A66C2"/>
<path fill-rule="evenodd" clip-rule="evenodd" d="M99.9897 30.0024H95.3294V28.0154H95.2752C94.2365 29.2166 92.4302 30.2101 89.3775 30.2101C85.2049 30.2101 81.6283 27.0761 81.6283 21.6842C81.6283 16.2923 85.1597 13.1312 89.531 13.1312C92.2405 13.1312 93.9204 14.0976 94.941 15.3259H94.9862V5.01172H99.9897V30.0024ZM90.7955 16.8703C87.9324 16.8703 86.3338 18.9115 86.3338 21.6119C86.3338 24.3124 87.9415 26.4529 90.7955 26.4529C93.6495 26.4529 95.3294 24.3847 95.3294 21.6119C95.3294 18.8392 93.6495 16.8703 90.7955 16.8703ZM79.4336 27.3109C78.2504 28.8373 75.8209 30.2011 71.9012 30.2011C66.6628 30.2011 63.3301 26.7419 63.3301 21.3049C63.3301 16.4639 66.3557 13.1312 72.0457 13.1312C76.9679 13.1312 79.9936 16.3555 79.9936 22.0364C79.9936 22.6054 79.9032 23.1654 79.9032 23.1654H68.0446L68.0717 23.6712C68.3969 25.1072 69.4807 26.8684 71.9824 26.8684C74.15 26.8684 75.6403 25.7033 76.3177 24.7821L79.4336 27.3019V27.3109ZM75.1797 19.9953C75.2158 18.2341 73.9333 16.4639 71.8921 16.4639C69.4807 16.4639 68.1891 18.3515 68.0446 19.9953H75.1797Z" fill="#0A66C2"/>
<path fill-rule="evenodd" clip-rule="evenodd" d="M56.6559 20.8878L63.7277 30.0008H57.8209L51.6613 21.6645V30.0008H46.6578V5.01011H51.6613V20.0027L57.4868 13.3373H63.3122L56.6468 20.8878H56.6559ZM26.6616 13.3373H31.3671V15.7397H31.4213C32.1438 14.4392 34.2663 13.1296 36.8855 13.1296C41.9161 13.1296 43.3251 16.3268 43.3251 20.7523V30.0008H38.3215V21.6645C38.3215 19.2169 37.4364 17.5009 35.3591 17.5009C32.8483 17.5009 31.6561 19.4969 31.6561 21.9897V30.0008H26.6525V13.3373H26.6616ZM18.3253 13.3373H23.3289V30.0008H18.3253V13.3373ZM18.7588 9.60724C18.2079 9.03824 17.9008 8.29764 17.9008 7.51189C17.9008 6.72613 18.2079 5.9765 18.7588 5.41654C19.3098 4.84754 20.0504 4.53143 20.8361 4.51337C21.649 4.48628 22.4167 4.79335 23.0037 5.36234C23.5818 5.93134 23.9069 6.69904 23.9069 7.51189C23.9069 8.32474 23.5818 9.08339 23.0037 9.65239C22.4167 10.2214 21.649 10.5285 20.8361 10.5104C20.0504 10.4923 19.3098 10.1672 18.7588 9.60724ZM5.00356 24.9972H14.9926V29.9917H0V5.00108H5.00356V24.9972Z" fill="#0A66C2"/>
</svg>
