<svg width="88" height="101" viewBox="0 0 88 101" fill="none" xmlns="http://www.w3.org/2000/svg">
<path d="M0.93457 0.921875V68.4219H32.4346V27.9219H50.4346V68.4219H81.9346V0.921875H0.93457ZM0.93457 80.4219V96.4519H4.40457V86.3319L12.0946 96.4519H15.0646V80.4219H11.6246V90.3319L4.15457 80.4219H0.93457ZM44.6546 80.4219L37.9946 96.4519H41.5546L43.0246 92.8919H49.3346L50.8046 96.4519H54.4246L47.7946 80.4219H44.6446H44.6546ZM30.8446 81.1719V84.2619H29.4046V87.2319H30.8446V92.9819C30.8446 95.8019 32.2946 96.6319 34.4046 96.6319C35.5646 96.6319 36.3946 96.3819 37.1246 95.9419V93.1619C36.5946 93.4519 36.0046 93.6019 35.4046 93.6019C34.6346 93.6019 34.3146 93.2119 34.3146 92.4119V87.2219H37.1546V84.2519H34.3146V81.1619H30.8446V81.1719ZM22.7746 84.0519C19.2246 84.0519 16.7446 86.9219 16.7446 90.3919V90.4219C16.7446 94.1519 19.4646 96.7319 23.1146 96.7319C25.3146 96.7319 26.9446 95.8619 28.0846 94.4519L26.1146 92.7019C25.1646 93.5919 24.3046 93.9519 23.1446 93.9519C21.5946 93.9519 20.5246 93.1419 20.1746 91.5719H28.6446C28.6746 91.2519 28.6746 90.9019 28.6746 90.6319C28.6746 87.1819 26.8346 84.0419 22.7646 84.0419L22.7746 84.0519ZM62.5546 84.0519C60.7646 84.0519 59.5846 84.8819 58.7446 86.0219V84.2719H55.3046V100.082H58.7446V94.8619C59.5646 95.8419 60.7146 96.6719 62.5546 96.6719C65.4446 96.6719 68.0846 94.4619 68.0846 90.3919V90.3319C68.0846 86.2619 65.3946 84.0519 62.5546 84.0519ZM76.7446 84.0519C74.9546 84.0519 73.8046 84.8819 72.9646 86.0219V84.2719H69.4946V100.082H72.9646V94.8619C73.7846 95.8419 74.9046 96.6719 76.7446 96.6719C79.6346 96.6719 82.2746 94.4619 82.2746 90.3919V90.3319C82.2746 86.2619 79.5846 84.0519 76.7446 84.0519ZM81.9346 84.2719V84.6419H82.6846V86.9819H83.0946V84.6419H83.8746V84.2619H81.9346V84.2719ZM84.3746 84.2719V86.9919H84.7846V84.7419L85.5946 86.9919H85.8446L86.6546 84.7419V86.9919H87.0646V84.2719H86.4446L85.7246 86.3319L85.0046 84.2719H84.3846H84.3746ZM46.1846 84.6419L48.2746 89.8019H44.0546L46.1846 84.6419ZM22.7746 86.8319C24.2246 86.8319 25.1346 87.8419 25.3346 89.3919H20.1146C20.3846 87.8219 21.3346 86.8319 22.7746 86.8319ZM61.6546 86.9819C63.2646 86.9819 64.6246 88.3019 64.6246 90.3219V90.3819C64.6246 92.4219 63.2646 93.7219 61.6546 93.7219C60.0446 93.7219 58.7146 92.4019 58.7146 90.3819V90.3219C58.7146 88.3019 60.0446 86.9819 61.6546 86.9819ZM75.8746 86.9819C77.4846 86.9819 78.8446 88.3019 78.8446 90.3219V90.3819C78.8446 92.4219 77.4846 93.7219 75.8746 93.7219C74.2646 93.7219 72.9046 92.4019 72.9046 90.3819V90.3219C72.9046 88.3019 74.2646 86.9819 75.8746 86.9819Z" fill="black"/>
</svg>
