<svg width="140" height="21" viewBox="0 0 140 21" fill="none" xmlns="http://www.w3.org/2000/svg">
<path d="M139.16 4.54034C139.16 4.54034 139.16 4.48614 139.142 4.45904C139.124 4.43195 139.106 4.42292 139.061 4.40485C139.025 4.38679 138.961 4.38679 138.889 4.38679H138.69V4.70291H138.907C139.006 4.70291 139.079 4.68485 139.124 4.66679C139.142 4.64872 139.16 4.61259 139.16 4.54937V4.54034Z" fill="black"/>
<path d="M139.377 4.0526C139.241 3.97131 139.106 3.95324 138.97 3.95324C138.835 3.95324 138.699 3.98937 138.564 4.0526C138.428 4.13389 138.329 4.22421 138.248 4.36872C138.166 4.51324 138.13 4.63969 138.13 4.77517C138.13 4.91066 138.166 5.04614 138.248 5.18162C138.329 5.3171 138.419 5.41645 138.564 5.49774C138.699 5.57903 138.835 5.61517 138.97 5.61517C139.106 5.61517 139.259 5.57903 139.377 5.49774C139.512 5.41645 139.612 5.32613 139.693 5.18162C139.774 5.04614 139.81 4.91066 139.81 4.77517C139.81 4.63969 139.774 4.5042 139.693 4.36872C139.612 4.23324 139.521 4.11582 139.377 4.0526ZM139.223 5.29903L139.124 5.12743C139.043 4.99195 138.988 4.91066 138.952 4.87453C138.916 4.85646 138.871 4.8384 138.817 4.8384H138.717V5.29001H138.519V4.24227H138.889C139.025 4.24227 139.106 4.24228 139.16 4.26034C139.214 4.2784 139.259 4.31453 139.295 4.35969C139.332 4.40486 139.35 4.45905 139.35 4.51324C139.35 4.59453 139.332 4.64872 139.268 4.71195C139.214 4.76614 139.133 4.8113 139.034 4.8113C139.07 4.82937 139.115 4.84743 139.133 4.86549C139.169 4.90162 139.232 4.98291 139.286 5.08226L139.422 5.29903H139.205V5.3171L139.223 5.29903Z" fill="white"/>
<path d="M139.828 4.26937C139.729 4.11582 139.612 3.99841 139.458 3.89905C139.305 3.81776 139.124 3.76357 138.97 3.76357C138.799 3.76357 138.636 3.7997 138.483 3.89905C138.329 3.98034 138.194 4.11582 138.112 4.26937C138.013 4.42291 137.977 4.58549 137.977 4.75711C137.977 4.92872 138.013 5.0913 138.112 5.24484C138.212 5.39839 138.329 5.51581 138.483 5.61517C138.636 5.69646 138.817 5.75064 138.988 5.75064C139.16 5.75064 139.341 5.71452 139.494 5.61517C139.648 5.53388 139.783 5.39839 139.865 5.24484C139.964 5.0913 140 4.92872 140 4.75711C139.964 4.60356 139.919 4.42291 139.828 4.26937ZM139.684 5.16356C139.603 5.29904 139.512 5.39839 139.368 5.47968C139.232 5.56097 139.097 5.5971 138.961 5.5971C138.826 5.5971 138.672 5.56097 138.555 5.47968C138.419 5.39839 138.32 5.30807 138.239 5.16356C138.157 5.02807 138.121 4.89259 138.121 4.75711C138.121 4.62162 138.157 4.48614 138.239 4.35066C138.32 4.21518 138.41 4.11583 138.555 4.03454C138.69 3.95325 138.826 3.93518 138.961 3.93518C139.097 3.93518 139.232 3.97131 139.368 4.03454C139.503 4.11583 139.603 4.20615 139.684 4.35066C139.765 4.49518 139.801 4.62162 139.801 4.75711C139.801 4.91065 139.765 5.04614 139.684 5.16356Z" fill="black"/>
<path d="M100.258 3.5468C98.0365 3.5468 92.2108 4.20614 92.2108 9.7248C92.2108 15.2435 98.0365 15.9028 100.258 15.9028C102.48 15.9028 108.306 15.2435 108.306 9.7248C108.306 4.20614 102.48 3.5468 100.258 3.5468ZM100.258 13.7983C98.3707 13.7983 95.7152 12.9764 95.7152 9.70674C95.7152 6.43709 98.3617 5.61517 100.258 5.61517C102.155 5.61517 104.802 6.43709 104.802 9.70674C104.82 12.9764 102.155 13.7983 100.258 13.7983Z" fill="black"/>
<path d="M128.078 10.4654H136.243V8.37901H128.078V5.92226H136.965V3.84485H124.645V15.5686H137.354V13.4822H128.078V10.4654Z" fill="black"/>
<path d="M119.569 12.0009H119.506L112.867 3.84485H109.182V15.5686H112.452V7.21386H112.497L119.334 15.5686H122.821V3.84485H119.569V12.0009Z" fill="black"/>
<path d="M139.142 4.89259C139.142 4.89259 139.088 4.85646 139.043 4.8384C139.142 4.8384 139.214 4.80227 139.277 4.73904C139.332 4.68485 139.359 4.62162 139.359 4.54034C139.359 4.48614 139.341 4.44098 139.305 4.38679C139.268 4.35066 139.223 4.3055 139.169 4.28744C139.115 4.26937 139.015 4.26937 138.898 4.26937H138.528V5.3171H138.699V4.86549H138.799C138.853 4.86549 138.916 4.88356 138.934 4.90162C138.97 4.93775 139.052 5.01904 139.106 5.15452L139.205 5.32614H139.422L139.286 5.10936C139.25 4.99194 139.187 4.91066 139.151 4.87453L139.142 4.89259Z" fill="black"/>
<path d="M138.907 4.72098H138.69V4.40485H138.889C138.97 4.40485 139.025 4.40486 139.061 4.42292C139.097 4.44098 139.115 4.45905 139.142 4.47711C139.16 4.49517 139.16 4.5313 139.16 4.5584C139.16 4.59453 139.142 4.63969 139.106 4.67582C139.07 4.69388 139.006 4.71195 138.907 4.71195V4.72098Z" fill="white"/>
<path d="M67.1826 8.94803L63.7143 3.84485H56.6421L50.2744 8.61385V3.84485H46.7699V15.5686H50.2744V11.5945L51.8911 10.4293L57.0756 15.5686H61.5736L54.3479 8.64998L60.1465 4.56743L65.3671 11.1519V15.5686H68.8626V11.1699L74.4535 3.84485H70.4974L67.1826 8.94803Z" fill="black"/>
<path d="M92.5269 5.76871V3.84485H79.7464V5.92226H88.1644L79.5115 13.4822V15.5686H92.5811V13.4822H83.7838L92.5269 5.76871Z" fill="black"/>
<path d="M41.179 8.88481L37.1055 8.1803C36.401 8.06288 35.3352 7.86417 35.3352 6.95192C35.3352 5.90419 36.9158 5.55194 38.2616 5.55194C41.3235 5.55194 41.5945 6.79838 41.6938 7.30418H45.0267C45.0086 5.85903 43.6267 3.52873 38.4964 3.52873C33.0591 3.52873 32.0655 5.82291 32.0655 7.13257C32.0655 9.70674 34.6758 10.1313 37.3855 10.5829L39.1739 10.8719C40.9442 11.1609 42.1906 11.4138 42.1906 12.3351C42.1906 13.5815 40.339 13.8525 38.7042 13.8525C35.6423 13.8525 35.1816 12.6061 35.1545 11.9648H31.8036C31.8036 13.428 32.8513 15.8847 38.9571 15.8847C40.4203 15.8847 45.5596 15.5686 45.5596 12.0461C45.5596 9.94157 43.4551 9.28223 41.179 8.89384V8.88481Z" fill="black"/>
<path d="M22.7895 1.65907C22.5005 0.66553 21.543 1.07198 21.543 1.07198C21.543 1.07198 9.11478 3.70034 8.78059 3.78163C8.4464 3.86292 8.31092 3.83582 8.00382 4.3055C7.6877 4.77517 0.741957 15.4873 0.209059 16.3273C-0.296743 17.1673 0.209058 17.4021 0.732924 17.4202C14.9134 17.9892 24.7946 19.9131 26.1946 20.0666C27.6578 20.2383 27.5946 18.6486 27.4591 18.2783C27.3417 17.8718 23.0966 2.63454 22.7805 1.65907H22.7895Z" fill="white"/>
<path d="M21.6153 1.4423C21.0282 1.52359 20.5224 1.67714 19.8269 1.83068C19.556 1.91197 19.2579 1.96616 18.9508 2.04745C18.6799 2.08358 18.2282 2.14681 18.156 2.33648C18.1199 2.4539 18.1379 2.65261 18.1379 2.80616C18.1199 3.07712 18.1199 3.31196 18.1018 3.52873C19.1947 3.33002 20.2424 3.12228 21.3353 2.92358C21.3534 3.14035 21.3714 3.34809 21.4347 3.58293C21.805 3.50164 22.2295 3.50164 22.4101 3.24873C22.3108 2.64358 22.1753 2.05649 22.0218 1.49649C21.9856 1.46036 21.9043 1.46036 21.823 1.46036H21.6243V1.4423H21.6153Z" fill="black"/>
<path d="M22.7534 1.52359L22.2205 4.35066L17.6863 3.51067L18.2102 0.683594L22.7534 1.52359Z" fill="url(#paint0_linear_1808_10546)"/>
<path d="M17.4515 2.36358C16.9818 2.44487 16.4579 2.58036 15.916 2.67971C15.4102 2.79713 14.8231 2.85132 14.516 3.10422C14.3986 3.67324 14.227 4.15195 14.1096 4.68485C14.1638 4.7842 14.2812 4.82033 14.3986 4.7842C14.4347 4.61259 14.4799 4.37776 14.5341 4.19712C15.5818 3.98034 16.6205 3.80873 17.6502 3.61002C17.6682 3.20357 17.7315 2.83326 17.7315 2.41778C17.6953 2.39971 17.6141 2.36358 17.5599 2.36358H17.4515Z" fill="black"/>
<path d="M18.174 2.46293L17.605 5.49774L13.667 4.75711L14.218 1.74036L18.174 2.46293Z" fill="url(#paint1_linear_1808_10546)"/>
<path d="M13.947 3.12228C13.6128 3.14035 13.2244 3.27583 12.7999 3.33905C12.6012 3.37518 12.4115 3.42035 12.2128 3.45648C12.0141 3.49261 11.8244 3.4926 11.6438 3.57389C11.3728 3.67325 11.3096 3.96227 11.2193 4.17905C11.138 4.35066 11.0838 4.49517 11.0025 4.66679C11.5896 4.5855 12.1677 4.5313 12.6373 4.80227C12.7367 4.8384 12.8089 5.01904 12.9264 5.03711C13.0257 5.03711 13.3509 4.95581 13.5134 4.91968C13.6309 4.90162 13.7302 4.7842 13.7844 4.70291C13.8838 4.48614 13.9199 4.19711 14.0012 3.94421C14.0825 3.65518 14.1367 3.37519 14.1999 3.12228C14.1638 3.10422 14.1005 3.08615 14.0644 3.08615C13.9831 3.10422 13.9651 3.10422 13.947 3.12228Z" fill="black"/>
<path d="M14.5251 3.15841L14.0825 5.63323L10.6503 5.01L11.1019 2.53519L14.5251 3.15841Z" fill="url(#paint2_linear_1808_10546)"/>
<path d="M10.9032 3.72744C10.4335 3.82679 9.82832 3.94421 9.36768 4.01647C9.19607 4.07066 8.99736 4.07066 8.84382 4.11582C8.64511 4.21518 8.57285 4.43195 8.45543 4.62162C8.28382 4.89259 8.12124 5.12742 7.9677 5.39839C7.88641 5.51581 7.76899 5.63323 7.76899 5.80484C7.90447 5.88613 8.05802 5.80484 8.1935 5.78677C8.32898 5.76871 8.50963 5.78677 8.61801 5.73258C8.65414 5.71452 8.73543 5.61516 8.81672 5.56097C9.38575 5.17259 9.92768 4.90162 10.6683 4.73904C10.7496 4.60356 10.8038 4.42292 10.9032 4.25131C10.9844 4.07969 11.0748 3.93518 11.1019 3.74551C11.0838 3.72744 11.0206 3.70938 10.9844 3.70938C10.9844 3.70938 10.9302 3.72744 10.9032 3.72744Z" fill="black"/>
<path d="M11.5083 3.78163L11.0206 6.49128L7.3806 5.83194L7.88641 3.12228L11.5083 3.78163Z" fill="url(#paint3_linear_1808_10546)"/>
<path d="M21.814 3.78163C21.6785 3.79969 21.5431 3.81776 21.4437 3.81776C21.4256 4.03453 21.5792 4.32356 21.543 4.52227C21.543 4.60356 21.4076 4.72098 21.3082 4.8113C20.7211 5.48872 20.0979 6.21129 19.556 6.83451C20.1792 6.79838 20.8024 6.71709 21.4437 6.6358C21.8682 6.59967 23.0243 6.59967 23.0966 6.16613C23.0966 6.04871 22.9972 5.75968 22.9611 5.57904C22.8617 5.15452 22.7895 4.87453 22.6721 4.38679C22.654 4.21518 22.5908 3.89905 22.5366 3.7997C22.4553 3.70034 22.3379 3.68228 22.2205 3.68228C22.0669 3.68228 21.9314 3.70034 21.814 3.76357V3.78163Z" fill="black"/>
<path d="M23.6475 3.7997L22.9792 7.46676L18.9869 6.74419L19.6734 3.08615L23.6475 3.7997Z" fill="url(#paint4_linear_1808_10546)"/>
<path d="M14.2722 5.04613C13.956 5.12742 13.9018 5.41645 13.8025 5.72355C13.6851 6.24741 13.5134 6.87064 13.4141 7.37644C13.5134 7.57514 13.7302 7.49386 13.9199 7.47579C14.5251 7.3945 15.1663 7.35837 15.7083 7.27708C16.2773 6.70806 16.8554 6.08483 17.4063 5.52484C17.5057 5.42548 17.5779 5.32614 17.5237 5.19065C16.4128 5.32614 15.2657 5.52484 14.1547 5.67839C14.1728 5.47968 14.2902 5.20872 14.2722 5.05517V5.03711V5.04613Z" fill="black"/>
<path d="M18.0566 5.12743L17.4695 8.30675L12.9896 7.48483L13.5586 4.3055L18.0566 5.12743Z" fill="url(#paint5_linear_1808_10546)"/>
<path d="M12.9896 5.26291C13.0889 5.53387 13.0889 5.92225 13.0438 6.23838C12.3393 6.33773 11.6438 6.43709 10.9393 6.52741C11.0386 6.13902 10.7677 6.02161 10.4154 6.05774C10.2799 6.37386 10.0812 6.71709 9.9909 7.03321C10.6503 7.15063 11.3548 7.20482 11.8425 7.50288C11.9419 7.58417 12.0141 7.6745 12.1135 7.70159C12.2309 7.71966 12.4838 7.68352 12.6193 7.6203C13.0438 7.53901 13.0889 7.28611 13.2064 6.89773C13.3418 6.37386 13.4954 5.80483 13.6128 5.29903C13.5947 5.21774 13.5134 5.19968 13.4141 5.19968C13.2605 5.18161 13.098 5.23581 12.9896 5.25387V5.26291Z" fill="black"/>
<path d="M14.0193 5.26291L13.4593 8.36094L9.50317 7.63837L10.0632 4.54034L14.0193 5.26291Z" fill="url(#paint6_linear_1808_10546)"/>
<path d="M7.47996 6.23838C7.34448 6.3558 7.26319 6.55451 7.16383 6.72612C6.94706 7.06031 6.73932 7.40353 6.54061 7.71966C6.42319 7.89127 6.26965 8.05385 6.26965 8.24352C6.50448 8.36094 6.8748 8.22546 7.16383 8.22546C7.16383 7.60224 7.39867 7.21386 7.65157 6.82547C7.82318 6.59064 7.98576 6.3558 8.15737 6.16613C8.23866 6.08484 8.32898 6.04871 8.32898 5.99452C7.99479 6.04871 7.66963 6.01258 7.47093 6.24742L7.47996 6.23838Z" fill="black"/>
<path d="M8.74446 6.06677L8.25672 8.73126L5.8361 8.27965L6.32384 5.61517L8.74446 6.06677Z" fill="url(#paint7_linear_1808_10546)"/>
<path d="M9.65671 6.91579C9.77413 6.68096 9.92768 6.42806 10.027 6.15709C9.69284 6.17516 9.2322 6.68096 9.65671 6.91579Z" fill="black"/>
<path d="M10.1625 6.18419L10.009 7.06031L9.09672 6.87966L9.25027 6.02161L10.1625 6.18419Z" fill="url(#paint8_linear_1808_10546)"/>
<path d="M22.5908 6.8616C21.4979 6.96096 20.405 7.13257 19.2398 7.23192C18.9237 7.60224 18.5624 7.99063 18.2282 8.37901C18.1289 8.49643 17.9573 8.66804 17.9121 8.78545C17.8128 9.17384 17.9482 9.66158 17.8579 10.1313C19.5289 10.0951 21.1727 10.0138 22.8437 9.93254C22.925 10.3029 22.9792 10.6551 23.0605 11.0074C23.5301 11.0254 24.1533 11.0435 24.2256 10.6732C24.2437 10.5558 24.1895 10.339 24.1443 10.2035C23.9095 9.24609 23.6566 8.45126 23.4398 7.55708C23.4037 7.38547 23.3585 7.18676 23.3224 7.08741C23.223 6.95193 22.9882 6.87064 22.7172 6.87064H22.5818V6.85257L22.5908 6.8616Z" fill="black"/>
<path d="M24.9662 6.99709L24.0359 12.1816L17.0631 10.917L18.0115 5.73258L24.9662 6.99709Z" fill="url(#paint9_linear_1808_10546)"/>
<path d="M15.3289 7.6203C15.058 7.65643 14.7238 7.7016 14.4167 7.73773C14.1005 7.75579 13.7573 7.75579 13.5225 7.83708C13.1883 7.9545 13.1522 8.36094 13.0347 8.79449C12.8993 9.36351 12.7999 9.68867 12.6464 10.2396C12.5651 10.5738 12.3302 11.0616 12.6464 11.2151C12.6825 11.0977 12.7277 10.9441 12.7638 10.8087C12.7818 10.6912 12.7818 10.4925 12.8631 10.3842C12.8812 10.3029 13.0799 10.1674 13.1793 10.05C13.9018 9.29126 14.5612 8.58674 15.2838 7.84611C15.3199 7.76482 15.4554 7.6745 15.365 7.6745H15.347V7.63837L15.3289 7.6203Z" fill="black"/>
<path d="M16.0696 7.73773L15.347 11.7299L11.6799 11.0706L12.4025 7.06031L16.0696 7.73773Z" fill="url(#paint10_linear_1808_10546)"/>
<path d="M12.2309 7.9545C12.3483 8.18933 12.4296 8.4603 12.4025 8.81255C12.3664 9.67061 11.9148 10.4835 11.5444 11.0525C11.5083 11.1519 11.409 11.2512 11.427 11.3235C11.9509 11.2874 12.0141 10.7996 12.1496 10.3119C12.2851 9.78803 12.4206 9.35448 12.5741 8.84868C12.5922 8.7132 12.7909 8.24353 12.7457 8.08998C12.7277 7.97256 12.6102 7.9545 12.4567 7.9545C12.4025 7.93643 12.3031 7.93643 12.2218 7.9545H12.2309Z" fill="black"/>
<path d="M13.4141 8.05385L12.7728 11.5583L10.8038 11.2061L11.4541 7.68353L13.4141 8.05385Z" fill="url(#paint11_linear_1808_10546)"/>
<path d="M7.14577 8.46029C6.75738 8.49642 6.15223 8.49642 5.88126 8.74932C5.70965 8.92094 5.59223 9.17384 5.45675 9.42674C5.14063 9.89641 4.86966 10.3209 4.56257 10.7906C4.46321 10.9261 4.13805 11.3777 4.19225 11.5493C4.27354 11.6487 4.42708 11.6306 4.61676 11.5854C4.73418 11.5674 4.85159 11.5493 4.93288 11.5674C5.06837 10.9983 5.26708 10.4925 5.55611 10.1041C6.23352 10.068 7.00125 9.98674 7.64254 9.93254C7.54318 10.2035 7.52512 10.7093 7.77802 10.7906C8.01286 10.2667 8.30188 9.74286 8.55479 9.20997C8.13027 9.07448 7.77802 9.01126 7.50705 8.82158C7.38964 8.72223 7.27222 8.45127 7.13673 8.45127H7.1548L7.14577 8.46029Z" fill="black"/>
<path d="M9.13285 8.57772L8.42834 12.4345L3.54193 11.5403L4.24644 7.68353L9.13285 8.57772Z" fill="url(#paint12_linear_1808_10546)"/>
<path d="M8.13931 10.917C8.74446 10.9351 9.43994 10.6009 9.62058 10.0951C9.81929 9.57126 9.30446 9.39061 8.89801 9.30029C8.62704 9.82415 8.37414 10.3751 8.13931 10.917Z" fill="black"/>
<path d="M10.1083 9.35448L9.75607 11.2422L7.85028 10.89L8.1935 9.00223L10.1083 9.35448Z" fill="url(#paint13_linear_1808_10546)"/>
<path d="M16.7108 10.1945C16.9095 10.1764 17.0992 10.1764 17.2979 10.1583C17.2979 9.94158 17.3521 9.63448 17.2979 9.45384C17.1263 9.70674 16.8915 9.92351 16.7108 10.1945Z" fill="black"/>
<path d="M17.4695 9.4719L17.316 10.3119L16.5754 10.1764L16.7289 9.33642L17.4695 9.4719Z" fill="url(#paint14_linear_1808_10546)"/>
<path d="M23.1959 11.5583C23.1959 11.5583 23.1779 11.5764 23.1959 11.5945C23.3134 12.299 23.485 12.9583 23.6205 13.6628C21.7147 13.5815 19.7005 13.4641 17.7947 13.4461C17.7766 14.3583 17.7405 15.2164 17.7405 16.1105C17.7405 16.4267 17.7044 16.7699 17.7405 17.0047C17.8218 17.2938 18.0566 17.5918 18.3637 17.6821C18.6347 17.7634 18.9689 17.7634 19.276 17.7996C21.1456 18.0344 22.9972 18.3054 24.8127 18.5944C25.1288 18.6305 25.472 18.7299 25.7249 18.7299C26.014 18.7118 26.294 18.495 26.3301 18.2421C26.4295 17.9531 26.2488 17.6189 26.1585 17.2847C25.6888 15.7854 25.2462 14.268 24.7946 12.7686C24.7133 12.4977 24.6953 12.1816 24.5779 11.9919C24.4062 11.6216 23.9546 11.5041 23.3856 11.5041H23.1869V11.5403L23.1959 11.5583Z" fill="black"/>
<path d="M27.7572 11.7932L26.1766 20.3195L16.4218 18.5312L17.9934 9.99577L27.7572 11.7932Z" fill="url(#paint15_linear_1808_10546)"/>
<path d="M11.1019 11.748C11.0025 11.748 10.8128 11.9828 10.6954 12.0822C9.738 12.9944 8.49156 13.6628 6.83867 13.717C6.46835 14.3944 6.16126 15.0809 5.82707 15.7854C5.72772 15.9841 5.51094 16.3544 5.70965 16.5622C5.80901 16.6796 6.1161 16.6796 6.41416 16.6796H6.649C7.35351 16.6976 8.01286 16.7609 8.71737 16.797C9.08769 16.797 9.47607 16.8963 9.81026 16.8783C10.298 16.797 10.4154 16.3544 10.569 15.9028C10.8851 14.7919 11.1922 13.6628 11.5444 12.5338C11.6257 12.3351 11.716 12.1093 11.6619 11.9467C11.6077 11.7751 11.4631 11.7299 11.2915 11.7299C11.2373 11.7119 11.1561 11.7119 11.1199 11.748H11.1019Z" fill="black"/>
<path d="M12.6012 11.8835L11.4722 17.9892L4.5716 16.7157L5.68256 10.619L12.6012 11.8835Z" fill="url(#paint16_linear_1808_10546)"/>
<path d="M11.996 12.6512C11.707 13.6628 11.4722 14.6202 11.1741 15.6499C11.0748 16.0564 10.858 16.6254 11.138 16.8602C11.3548 17.0589 12.0502 17.0318 12.4477 17.0589C13.5947 17.1583 14.6515 17.2757 15.6992 17.3931C15.916 17.4112 16.1689 17.4744 16.3586 17.4292C17.0179 17.3931 17.0179 16.806 17.036 16.1196C17.0541 15.126 17.1173 14.3854 17.1354 13.428C15.4825 13.3286 13.7664 13.3467 12.0864 13.3106C12.2219 12.8048 12.4025 12.2357 12.4748 11.7299C12.1044 11.9016 12.0864 12.2357 11.987 12.6422L11.996 12.6512Z" fill="black"/>
<path d="M18.1289 11.9287L16.9276 18.5854L9.83735 17.2847L11.0567 10.6371L18.1289 11.9287Z" fill="url(#paint17_linear_1808_10546)"/>
<path d="M4.49934 11.9648C4.36386 11.9648 4.21031 11.9648 4.02967 11.9828C3.89419 12.0009 3.69548 12.1545 3.60516 12.2719C3.37032 12.5609 3.18064 12.9312 2.92774 13.2835C2.35872 14.1235 1.83485 14.9364 1.25679 15.7944C1.15744 15.966 0.967762 16.2009 1.05808 16.3815C1.13937 16.4809 1.4284 16.4809 1.66324 16.4809H1.88001C2.58452 16.4989 3.07226 16.4989 3.63225 16.5351C3.94838 16.5531 4.2916 16.6164 4.58966 16.5531C5.05934 16.4718 5.29417 15.9299 5.46578 15.5415C5.78191 14.9364 6.12513 14.2951 6.37803 13.6899C5.48385 13.5725 4.87869 13.0306 4.91482 11.9557C4.76127 11.9738 4.64386 11.9557 4.50837 11.9557L4.49934 11.9648Z" fill="black"/>
<path d="M7.1819 12.1183L6.18836 17.5557L0.136802 16.4447L1.13034 11.0074L7.1819 12.1183Z" fill="url(#paint18_linear_1808_10546)"/>
<defs>
<linearGradient id="paint0_linear_1808_10546" x1="53.1472" y1="13.3354" x2="50.3627" y2="91.8496" gradientUnits="userSpaceOnUse">
<stop stop-color="#F78C28"/>
<stop offset="1" stop-color="#F36D34"/>
</linearGradient>
<linearGradient id="paint1_linear_1808_10546" x1="88.5159" y1="4.61091" x2="86.156" y2="81.2615" gradientUnits="userSpaceOnUse">
<stop stop-color="#F78C28"/>
<stop offset="1" stop-color="#F36D34"/>
</linearGradient>
<linearGradient id="paint2_linear_1808_10546" x1="64.172" y1="-4.58834" x2="61.188" y2="88.3679" gradientUnits="userSpaceOnUse">
<stop stop-color="#F78C28"/>
<stop offset="1" stop-color="#F36D34"/>
</linearGradient>
<linearGradient id="paint3_linear_1808_10546" x1="76.1953" y1="-10.4961" x2="73.5072" y2="74.9874" gradientUnits="userSpaceOnUse">
<stop stop-color="#F78C28"/>
<stop offset="1" stop-color="#F36D34"/>
</linearGradient>
<linearGradient id="paint4_linear_1808_10546" x1="63.3072" y1="1.68584" x2="61.5115" y2="67.4448" gradientUnits="userSpaceOnUse">
<stop stop-color="#F78C28"/>
<stop offset="1" stop-color="#F36D34"/>
</linearGradient>
<linearGradient id="paint5_linear_1808_10546" x1="100.694" y1="-8.21674" x2="98.3549" y2="63.7543" gradientUnits="userSpaceOnUse">
<stop stop-color="#F78C28"/>
<stop offset="1" stop-color="#F36D34"/>
</linearGradient>
<linearGradient id="paint6_linear_1808_10546" x1="99.0731" y1="-13.4811" x2="96.786" y2="61.903" gradientUnits="userSpaceOnUse">
<stop stop-color="#F78C28"/>
<stop offset="1" stop-color="#F36D34"/>
</linearGradient>
<linearGradient id="paint7_linear_1808_10546" x1="121.895" y1="-28.715" x2="119.681" y2="63.7445" gradientUnits="userSpaceOnUse">
<stop stop-color="#F78C28"/>
<stop offset="1" stop-color="#F36D34"/>
</linearGradient>
<linearGradient id="paint8_linear_1808_10546" x1="226.055" y1="-86.6225" x2="218.751" y2="190.723" gradientUnits="userSpaceOnUse">
<stop stop-color="#F78C28"/>
<stop offset="1" stop-color="#F36D34"/>
</linearGradient>
<linearGradient id="paint9_linear_1808_10546" x1="94.443" y1="-5.97801" x2="93.0383" y2="38.6793" gradientUnits="userSpaceOnUse">
<stop stop-color="#F78C28"/>
<stop offset="1" stop-color="#F36D34"/>
</linearGradient>
<linearGradient id="paint10_linear_1808_10546" x1="94.7201" y1="-20.1631" x2="93.2315" y2="41.5357" gradientUnits="userSpaceOnUse">
<stop stop-color="#F78C28"/>
<stop offset="1" stop-color="#F36D34"/>
</linearGradient>
<linearGradient id="paint11_linear_1808_10546" x1="132.467" y1="-28.9324" x2="131.181" y2="45.4436" gradientUnits="userSpaceOnUse">
<stop stop-color="#F78C28"/>
<stop offset="1" stop-color="#F36D34"/>
</linearGradient>
<linearGradient id="paint12_linear_1808_10546" x1="115.231" y1="-27.2234" x2="113.4" y2="33.3997" gradientUnits="userSpaceOnUse">
<stop stop-color="#F78C28"/>
<stop offset="1" stop-color="#F36D34"/>
</linearGradient>
<linearGradient id="paint13_linear_1808_10546" x1="194.654" y1="-65.535" x2="191.326" y2="63.0759" gradientUnits="userSpaceOnUse">
<stop stop-color="#F78C28"/>
<stop offset="1" stop-color="#F36D34"/>
</linearGradient>
<linearGradient id="paint14_linear_1808_10546" x1="232.865" y1="-132.511" x2="225.916" y2="162.852" gradientUnits="userSpaceOnUse">
<stop stop-color="#F78C28"/>
<stop offset="1" stop-color="#F36D34"/>
</linearGradient>
<linearGradient id="paint15_linear_1808_10546" x1="87.2843" y1="-11.2563" x2="86.498" y2="16.6453" gradientUnits="userSpaceOnUse">
<stop stop-color="#F78C28"/>
<stop offset="1" stop-color="#F36D34"/>
</linearGradient>
<linearGradient id="paint16_linear_1808_10546" x1="105.103" y1="-23.9645" x2="104.01" y2="15.1188" gradientUnits="userSpaceOnUse">
<stop stop-color="#F78C28"/>
<stop offset="1" stop-color="#F36D34"/>
</linearGradient>
<linearGradient id="paint17_linear_1808_10546" x1="102.378" y1="-19.7947" x2="101.407" y2="16.4485" gradientUnits="userSpaceOnUse">
<stop stop-color="#F78C28"/>
<stop offset="1" stop-color="#F36D34"/>
</linearGradient>
<linearGradient id="paint18_linear_1808_10546" x1="5.98077" y1="0.550766" x2="3.38126" y2="14.7562" gradientUnits="userSpaceOnUse">
<stop stop-color="#F78C28"/>
<stop offset="1" stop-color="#F36D34"/>
</linearGradient>
</defs>
</svg>
