<svg width="140" height="53" viewBox="0 0 140 53" fill="none" xmlns="http://www.w3.org/2000/svg">
<path d="M28.2147 0.355469L49.4853 28.5701L21.2707 49.8408L0 21.6261L28.2147 0.355469ZM21.084 45.3888C21.1213 45.4355 21.14 45.5101 21.168 45.5661L21.2147 45.6501L21.2613 45.5661C21.2613 45.5661 21.2613 45.5101 21.2613 45.4821C21.4013 45.3888 21.3453 45.1555 21.3453 45.0061C21.448 34.9541 21.2707 24.8928 21.3453 14.8408L21.616 14.6261C26.096 14.5328 30.6133 14.6261 35.0933 14.6261C35.1493 14.6261 35.2147 14.6261 35.2707 14.6261C35.3267 14.6261 35.3827 14.6261 35.448 14.6261C35.4853 14.6261 35.4293 14.6821 35.6253 14.6261C35.6813 14.6075 35.8027 14.6635 35.7933 14.5795L27.7107 3.9208L3.556 22.1021C9.352 29.9048 15.2507 37.6328 21.1027 45.3888H21.084Z" fill="#0550C4"/>
<path d="M59.2853 14.6168V52.6408H21.3453V52.5568L52.528 29.1301L41.8227 14.6168H59.2853Z" fill="#0550C4"/>
<path d="M116.06 18.2475C121.539 18.5181 126.327 21.5795 127.036 27.3195V30.2595C126.439 34.7115 124.003 36.6901 119.821 37.6981C119.719 37.7261 119.663 37.6328 119.691 37.8288L128.072 48.9355L117.703 49.0195C117.637 48.9821 117.572 48.9541 117.535 48.8888C114.875 45.5661 112.56 41.9168 109.844 38.6501C109.797 38.5941 109.779 38.4728 109.667 38.4728L109.583 49.0195H100.94V18.2568H116.06V18.2475ZM109.667 31.7341L109.751 31.8181C109.797 31.9115 109.872 31.9021 109.956 31.9115C110.899 32.0235 112.971 31.9861 113.951 31.9115C114.1 31.9021 114.119 31.9208 114.24 31.8181C114.268 31.7901 114.296 31.7621 114.324 31.7341C116.713 31.5848 117.908 30.1381 117.581 27.7395C117.367 26.1528 115.864 25.3688 114.408 25.2568L109.741 25.1728H109.657V31.7435L109.667 31.7341Z" fill="#0550C4"/>
<path d="M81.4897 17.6406C82.3577 17.6126 83.3004 17.6126 84.1684 17.6406C89.8897 17.7993 95.3124 19.9833 96.6751 26.0873L96.7777 27.842H87.6124C87.2951 24.622 83.5804 23.7726 80.9391 24.6686C79.4737 25.1633 78.2977 26.7313 79.3711 28.1873C80.5564 29.7926 85.9137 30.2966 87.8924 30.726C92.5124 31.7153 97.1791 33.7313 97.4684 39.1259C97.8417 45.9953 92.2604 49.1406 86.1751 49.71H85.5404C85.4844 49.71 85.4284 49.71 85.3631 49.71C84.1497 49.7473 82.7684 49.766 81.5644 49.71C79.2684 49.6166 76.7017 48.9913 74.6671 47.9273C71.4097 46.2286 69.1604 43.2139 68.7777 39.5179H78.5404C79.2777 42.7659 82.9271 43.5779 85.7831 42.7379C87.2391 42.3086 87.8644 41.4873 87.5937 39.9286C87.3977 38.7526 85.7084 38.1459 84.7191 37.8846C82.5071 37.2873 80.0617 37.1473 77.8311 36.5593C72.5484 35.1593 68.2644 31.7899 69.4031 25.7606C70.5417 19.7313 76.0951 17.8459 81.4804 17.6593L81.4897 17.6406Z" fill="#0550C4"/>
<path d="M140 18.2475H131.189V49.0101H140V18.2475Z" fill="#0550C4"/>
</svg>
