<svg width="140" height="69" viewBox="0 0 140 69" fill="none" xmlns="http://www.w3.org/2000/svg">
<path d="M41.1201 58.0944H42.9535V62.2581H47.1443V58.0944H48.9777V68.4358H47.1443V63.8477H42.9535V68.4358H41.1201V58.0944Z" fill="#53565A"/>
<path d="M54.2162 60.4878C56.3206 60.4878 57.4225 62.0052 57.4225 64.1728C57.4225 64.525 57.3863 64.8412 57.3412 65.0308H52.4098C52.5724 66.4398 53.4575 67.2255 54.7039 67.2255C55.3722 67.2255 55.9412 67.0178 56.5102 66.6565L57.1244 67.7945C56.3838 68.2823 55.4445 68.6345 54.4691 68.6345C52.3195 68.6345 50.6396 67.1352 50.6396 64.5702C50.6396 62.0052 52.3918 60.4878 54.2162 60.4878ZM55.8509 63.8657C55.8509 62.6284 55.3271 61.8878 54.2704 61.8878C53.3491 61.8878 52.5634 62.5651 52.4008 63.8657H55.8509Z" fill="#53565A"/>
<path d="M63.1396 63.4774C63.1215 62.6555 62.7783 61.96 61.7306 61.96C60.9539 61.96 60.2313 62.3123 59.5449 62.7187L58.8766 61.4994C59.7346 60.9575 60.8184 60.4878 62.0558 60.4878C63.9976 60.4878 64.9459 61.671 64.9459 63.8386V68.4448H63.4557L63.3112 67.5868H63.266C62.5706 68.1739 61.7758 68.6345 60.8636 68.6345C59.4998 68.6345 58.5514 67.7133 58.5514 66.3585C58.5514 64.6966 59.9423 63.8296 63.1215 63.4774H63.1396ZM61.4506 67.2075C62.0829 67.2075 62.5706 66.8914 63.1396 66.3495V64.6063C61.0352 64.8773 60.3397 65.4282 60.3397 66.205C60.3397 66.9004 60.8003 67.1984 61.4506 67.1984V67.2075Z" fill="#53565A"/>
<path d="M66.96 57.2725H68.7754V66.5391C68.7754 66.9817 68.9831 67.1443 69.1728 67.1443C69.2541 67.1443 69.3173 67.1443 69.4618 67.1081L69.6966 68.4719C69.4799 68.5622 69.1547 68.6345 68.7302 68.6345C67.4297 68.6345 66.96 67.7945 66.96 66.4488V57.2725Z" fill="#53565A"/>
<path d="M71.6023 62.1136H70.4914V60.7498L71.6927 60.6685L71.9094 58.546H73.4268V60.6685H75.4047V62.1045H73.4268V65.8076C73.4268 66.7288 73.779 67.1714 74.5196 67.1714C74.7906 67.1714 75.1067 67.0901 75.3234 66.9997L75.6396 68.3455C75.2151 68.49 74.6732 68.6345 74.059 68.6345C72.2526 68.6345 71.5933 67.4965 71.5933 65.8166V62.1136H71.6023Z" fill="#53565A"/>
<path d="M77.2201 57.2725H79.0355V60.1537L78.9723 61.6529C79.6226 61.0388 80.3993 60.4788 81.456 60.4788C83.1179 60.4788 83.8404 61.5987 83.8404 63.5677V68.4358H82.025V63.8025C82.025 62.52 81.6637 62.0503 80.8057 62.0503C80.1283 62.0503 79.6858 62.3845 79.0355 63.0167V68.4448H77.2201V57.2725Z" fill="#53565A"/>
<path d="M94.1457 57.9048C95.3921 57.9048 96.4397 58.5189 97.09 59.2144L96.0604 60.3524C95.5366 59.8285 94.9495 59.4943 94.1637 59.4943C92.4567 59.4943 91.2555 60.9214 91.2555 63.2425C91.2555 65.5637 92.3664 67.0268 94.1005 67.0268C95.0218 67.0268 95.6811 66.6475 96.2681 65.9972L97.2978 67.1172C96.4578 68.0836 95.365 68.6164 94.0734 68.6164C91.4361 68.6164 89.3769 66.7198 89.3769 63.2877C89.3769 59.8556 91.4994 57.8957 94.1547 57.8957L94.1457 57.9048Z" fill="#53565A"/>
<path d="M102.735 63.4774C102.717 62.6555 102.374 61.96 101.326 61.96C100.549 61.96 99.8267 62.3123 99.1402 62.7187L98.4719 61.4994C99.3299 60.9575 100.414 60.4878 101.651 60.4878C103.593 60.4878 104.541 61.671 104.541 63.8386V68.4448H103.051L102.906 67.5868H102.861C102.166 68.1739 101.371 68.6345 100.459 68.6345C99.0951 68.6345 98.1467 67.7133 98.1467 66.3585C98.1467 64.6966 99.5376 63.8296 102.717 63.4774H102.735ZM101.046 67.2075C101.678 67.2075 102.166 66.8914 102.735 66.3495V64.6063C100.63 64.8773 99.935 65.4282 99.935 66.205C99.935 66.9004 100.396 67.1984 101.046 67.1984V67.2075Z" fill="#53565A"/>
<path d="M106.546 60.6775H108.046L108.172 62.0503H108.235C108.786 61.0388 109.608 60.4878 110.43 60.4878C110.827 60.4878 111.08 60.533 111.315 60.6504L110.999 62.231C110.728 62.1497 110.52 62.1045 110.195 62.1045C109.581 62.1045 108.831 62.529 108.362 63.7032V68.4448H106.546V60.6775Z" fill="#53565A"/>
<path d="M115.425 60.4878C117.529 60.4878 118.631 62.0052 118.631 64.1728C118.631 64.525 118.595 64.8412 118.55 65.0308H113.618C113.781 66.4398 114.666 67.2255 115.912 67.2255C116.581 67.2255 117.15 67.0178 117.719 66.6565L118.333 67.7945C117.592 68.2823 116.653 68.6345 115.677 68.6345C113.528 68.6345 111.848 67.1352 111.848 64.5702C111.848 62.0052 113.6 60.4878 115.425 60.4878ZM117.059 63.8657C117.059 62.6284 116.535 61.8878 115.479 61.8878C114.557 61.8878 113.772 62.5651 113.609 63.8657H117.059Z" fill="#53565A"/>
<path d="M133.235 26.7903H139.828V28.425H135.177V31.2158H139.106V32.8506H135.177V36.0749H139.991V37.7097H133.235V26.7722V26.7903Z" fill="#53565A"/>
<path d="M117.818 26.7903H119.805L123.219 32.9409L124.339 35.2711H124.402C124.321 34.1512 124.149 32.7603 124.149 31.541V26.7903H126.01V37.7277H124.023L120.609 31.5771L119.489 29.2469H119.426C119.507 30.403 119.678 31.7216 119.678 32.9409V37.7277H117.818V26.7903Z" fill="#53565A"/>
<path d="M108.669 26.7903H110.611V37.7277H108.669V26.7903Z" fill="#53565A"/>
<path d="M99.077 26.5916C100.396 26.5916 101.498 27.2419 102.184 27.9825L101.1 29.1837C100.549 28.6327 99.926 28.2805 99.0951 28.2805C97.2887 28.2805 96.0152 29.7888 96.0152 32.2455C96.0152 34.7021 97.1894 36.2465 99.0228 36.2465C99.9892 36.2465 100.694 35.8491 101.317 35.1627L102.401 36.3459C101.516 37.3665 100.36 37.9355 98.9867 37.9355C96.1959 37.9355 94.0192 35.9304 94.0192 32.2997C94.0192 28.6689 96.2591 26.6006 99.068 26.6006L99.077 26.5916Z" fill="#53565A"/>
<path d="M85.43 26.7903H87.3718V37.7277H85.43V26.7903Z" fill="#53565A"/>
<path d="M70.5366 26.7903H73.4629C76.8046 26.7903 78.7826 28.5966 78.7826 32.2093C78.7826 35.822 76.8137 37.7277 73.5622 37.7277H70.5366V26.7903ZM73.3274 36.1562C75.5312 36.1562 76.7866 34.9008 76.7866 32.2093C76.7866 29.5179 75.5312 28.3618 73.3274 28.3618H72.4784V36.1562H73.3274Z" fill="#53565A"/>
<path d="M57.0973 26.7903H63.6905V28.425H59.0391V31.2158H62.968V32.8506H59.0391V36.0749H63.8531V37.7097H57.0973V26.7722V26.7903Z" fill="#53565A"/>
<path d="M40.1989 26.7903H42.3394L44.3173 32.1732L45.0399 34.2415H45.1031L45.8076 32.1732L47.7494 26.7903H49.8899V37.7277H48.0655V32.7241C48.0655 31.7036 48.2191 30.2494 48.3184 29.2469H48.2552L47.3701 31.7397L45.4824 36.7072H44.5793L42.6916 31.7397L41.8246 29.2469H41.7613C41.8607 30.2494 42.0142 31.7036 42.0142 32.7241V37.7277H40.226V26.7903H40.1989Z" fill="#53565A"/>
<path d="M66.4723 21.1906C62.9138 21.1906 62.6338 18.4901 62.6338 17.6591C62.6338 16.6837 62.8957 14.9586 65.1627 14.1277C67.5019 13.2697 68.0077 13.1703 69.6154 12.6646V12.2491C69.6154 11.4724 69.6154 11.2737 69.4618 10.795C69.1547 9.86471 68.2606 9.28668 67.0503 9.28668C65.2711 9.28668 64.5485 10.6414 64.5395 10.6595L64.395 10.9214L63.7357 10.5331L63.7989 10.3344C64.124 9.31377 65.4065 7.57967 68.2245 7.57967C70.0579 7.57967 71.2501 8.10352 71.9907 9.22346C72.5416 10.1176 72.5868 11.3459 72.5868 12.6284C72.5868 13.7574 72.5597 15.0219 72.5326 16.0334C72.5146 16.7289 72.5055 17.334 72.5055 17.7043C72.5055 18.6346 72.65 19.3481 73.4268 19.3481C73.6164 19.3481 73.7519 19.3029 73.8603 19.2216L74.0771 19.041L74.5106 19.5377L74.3661 19.7184C73.6526 20.5764 72.9752 21.1815 71.774 21.1815C70.7263 21.1815 70.0037 20.6848 69.7599 19.8539C69.1818 20.459 68.1251 21.2086 66.4723 21.2086V21.1906ZM69.6244 14.2813C67.8722 14.8051 67.2852 15.1031 66.7433 15.3741C65.9936 15.7534 65.5962 16.5302 65.5962 17.4333C65.5962 18.1469 65.8491 19.339 67.5561 19.339C68.1161 19.339 68.9289 19.2397 69.6244 18.7339V14.2813Z" fill="#8C1515"/>
<path d="M44.7238 21.1544C43.0168 21.1544 41.7252 20.9648 40.3885 20.5312L40.1989 20.468V19.5107C40.1989 18.2372 40.1718 17.7404 40.1447 17.334L40.1085 16.6747H40.8853L40.9033 16.9547C40.9395 17.5508 41.1382 18.1288 41.4994 18.5352C42.0594 19.1674 43.3419 19.5468 44.5431 19.5468C47.0449 19.5468 48.21 18.5984 48.21 16.5663C48.21 14.8232 47.1353 14.1006 45.645 13.0981L45.4102 12.9355L43.8387 11.8878C41.653 10.4427 40.5421 9.27765 40.5421 6.96551C40.5421 5.83654 40.9666 2.13351 46.4759 2.13351C48.7339 2.13351 50.477 2.43156 50.5493 2.44059L50.7841 2.48575V2.72057C50.7841 2.72057 50.757 3.44312 50.757 4.21985C50.757 4.83401 50.748 5.36688 50.766 5.91782L50.7841 6.33328H50.1157L50.0977 6.0804C50.0525 5.38495 49.8448 4.87917 49.4564 4.4908C48.9236 3.95793 47.7585 3.71407 46.5121 3.71407C43.5948 3.71407 43.2516 5.21335 43.2516 6.34232C43.2516 7.88675 44.0464 8.41059 45.7805 9.55763L47.7675 10.8763C49.4655 12.0052 51.0641 13.071 51.0641 15.8889C51.0641 20.6487 46.6295 21.1635 44.7147 21.1635L44.7238 21.1544Z" fill="#8C1515"/>
<path d="M57.7657 21.2357C55.7335 21.2357 54.6045 20.5132 54.1078 18.8875C53.9001 18.2462 53.9001 16.9727 53.9001 16.2141C53.9001 14.1187 53.9181 12.4297 53.9452 10.4789V9.56666H52.2201V9.05185L52.3918 8.9796C53.1956 8.64542 53.5027 8.41963 53.8639 8.13964C55.1284 7.16421 56.0045 5.50237 56.0135 5.4843L56.3115 4.98755H56.8806V7.94094H61.3513V9.56666H56.8806V16.4669C56.8806 18.5262 57.2689 19.7003 59.2198 19.7003C60.123 19.7003 60.8184 19.3481 60.8274 19.339L61.0984 19.2036L61.3242 19.7364L61.2068 19.8629C61.1616 19.9171 60.1501 21.2357 57.7566 21.2357H57.7657Z" fill="#8C1515"/>
<path d="M75.6305 21.0731V20.45L75.8834 20.4319C76.1002 20.4138 76.6601 20.3235 77.0485 19.89C77.4549 19.4384 77.482 18.3185 77.482 16.0786V12.3214C77.482 10.7047 77.4549 10.0183 77.2201 9.66601C76.9492 9.27765 76.3621 9.24152 76.046 9.21442C76.0008 9.21442 75.9737 9.21442 75.9376 9.21442L75.6847 9.18733V8.43769L75.9828 8.46478C76.0369 8.46478 76.1002 8.46478 76.1815 8.46478C76.5879 8.46478 77.5453 8.41059 78.5568 8.2119C79.3245 8.08545 79.7761 7.82353 79.9387 7.74225L80.0922 7.66999L80.3541 7.82353V8.86219C81.0135 8.37447 82.3502 7.59773 84.1565 7.59773C86.5229 7.59773 88.0673 8.70865 88.5098 10.7137C88.6363 11.2105 88.6814 12.4207 88.6814 13.062V16.8914C88.6814 19.0591 88.7627 19.6642 89.1692 20.0435C89.3769 20.2332 89.8104 20.3867 90.1807 20.4138L90.4426 20.4319V21.0461L89.7924 21.0099C88.853 20.9648 88.0402 20.9196 87.1822 20.9196C86.2158 20.9196 85.3758 20.9196 84.2017 21.028L83.8946 21.0551V20.45L84.1294 20.4138C84.6352 20.3325 84.9965 20.188 85.2223 19.9622C85.6468 19.5377 85.6648 18.5262 85.701 17.6501C85.701 17.5056 85.71 17.3521 85.719 17.1985C85.7461 16.7108 85.7461 15.6721 85.7461 14.9225C85.7461 13.938 85.7461 12.9265 85.6377 11.924C85.439 10.226 84.5539 9.44022 82.8469 9.44022C81.6728 9.44022 80.9412 9.71117 80.3903 9.99116V16.8914C80.3903 19.0591 80.4806 19.6642 80.887 20.0435C81.0947 20.2332 81.5192 20.3867 81.8986 20.4138L82.1515 20.4319V21.0461L81.456 21.0099C80.5438 20.9648 79.758 20.9196 78.9271 20.9196C77.9788 20.9196 77.0846 20.9196 75.9105 21.028L75.6125 21.0551L75.6305 21.0731Z" fill="#8C1515"/>
<path d="M92.0142 21.0731V20.4319L92.2671 20.4138C92.4929 20.3958 93.0438 20.3145 93.4322 19.8719C93.8386 19.4203 93.8567 18.3094 93.8567 16.0695V9.55763H92.1496V8.81702L92.3213 8.74477C93.0619 8.43769 93.5225 8.19383 93.8567 7.93191C93.8567 6.76681 93.8928 5.26754 94.0554 4.44565C94.5792 1.73611 96.3494 0.363281 99.3299 0.363281C100.603 0.363281 101.832 0.787775 102.536 1.36581L102.636 1.4471L102.681 1.72708L101.38 3.54247H101.064L100.992 3.3799C100.495 2.26899 99.7725 1.82643 98.779 1.82643C98.3635 1.82643 97.8035 1.95287 97.4513 2.29608C96.8823 2.86508 96.783 3.70504 96.783 5.38495V7.92288H99.7092V9.5486H96.783V16.8282C96.783 18.5623 96.8371 19.4023 97.0629 19.7455C97.4332 20.2964 98.5441 20.3416 98.8783 20.3416H99.1583V21.037L98.8693 21.019C97.4242 20.9467 96.3494 20.9106 95.5727 20.9106C94.5973 20.9106 93.4864 20.9106 92.3122 21.019L92.0142 21.0461V21.0731Z" fill="#8C1515"/>
<path d="M107.115 21.2899C103.105 21.2899 100.712 18.7881 100.712 14.6154C100.712 11.373 102.464 7.57967 107.386 7.57967C111.396 7.57967 113.79 10.0815 113.79 14.2542C113.79 17.5056 112.038 21.2899 107.106 21.2899H107.115ZM107.278 9.09701C106.501 9.09701 105.878 9.29571 105.417 9.69311C104.361 10.5782 103.828 12.1859 103.828 14.48C103.828 15.3651 103.99 19.7816 107.224 19.7816C107.991 19.7816 108.624 19.5829 109.084 19.1855C110.132 18.3004 110.674 16.6927 110.674 14.3987C110.674 13.5135 110.511 9.09701 107.278 9.09701Z" fill="#8C1515"/>
<path d="M115.063 20.4048L115.316 20.3867C115.542 20.3687 116.102 20.2874 116.481 19.8448C116.888 19.3932 116.906 18.3094 116.906 16.0786V12.3214C116.906 10.7047 116.888 10.0183 116.653 9.66601C116.382 9.27765 115.795 9.24152 115.47 9.21442C115.434 9.21442 115.397 9.21442 115.37 9.21442L115.117 9.18733V8.39253H115.397C115.443 8.40156 115.533 8.40156 115.614 8.40156C116.021 8.40156 116.978 8.34737 117.99 8.15771C118.631 8.04933 119.173 7.88675 119.399 7.7874L119.552 7.71515L119.787 7.83256V8.97057C120.419 8.37447 121.413 7.75127 122.822 7.75127C123.743 7.75127 124.483 7.99514 125.016 8.48285L125.107 8.56413V8.9796L124.005 11.0027H123.472L123.391 10.8763C123.083 10.3976 122.469 9.81955 121.277 9.81955C120.735 9.81955 120.266 9.95503 119.841 10.235V16.8553C119.841 18.5894 119.895 19.4113 120.121 19.7455C120.491 20.2964 121.602 20.3416 121.936 20.3416H122.207V21.0731L121.918 21.0551C120.473 20.9828 119.399 20.9467 118.622 20.9467C117.646 20.9467 116.544 20.9467 115.37 21.0551L115.063 21.0822V20.4048Z" fill="#8C1515"/>
<path d="M135.71 21.2538L135.358 21.1364V20.0345C134.707 20.5132 133.416 21.2628 131.691 21.2628C128.087 21.2628 125.757 18.761 125.757 14.8864C125.757 13.6039 126.01 12.3846 126.479 11.355C127.581 8.97057 129.866 7.60677 132.747 7.60677C133.804 7.60677 134.753 7.73321 135.313 7.85966V5.06884C135.313 3.43409 135.294 2.558 135.06 2.20576C134.789 1.82643 134.22 1.78127 133.904 1.75418C133.858 1.75418 133.831 1.75418 133.795 1.75418L133.551 1.72708L133.605 1.14001H133.885C133.949 1.14001 135.466 1.01357 136.694 0.769712C137.209 0.688426 137.724 0.571011 137.995 0.471662L138.121 0.426503L138.347 0.561978V0.688426C138.248 1.77224 138.239 4.08437 138.239 5.81847V16.5211C138.239 18.1198 138.257 19.1133 138.492 19.4294C138.763 19.8177 139.332 19.89 139.648 19.908C139.693 19.908 139.729 19.908 139.756 19.908H140V20.6216H139.729C139.431 20.6216 138.284 20.7028 137.182 20.8925C136.541 20.9919 136.071 21.0912 135.845 21.1906L135.728 21.2448L135.71 21.2538ZM132.675 9.1783C130.119 9.1783 128.864 10.9305 128.864 14.5341C128.864 15.9973 129.279 19.3932 133.091 19.3932H133.217C133.678 19.3932 134.545 19.321 135.294 18.8604V10.0634C135.078 9.84665 134.283 9.18733 132.675 9.18733V9.1783Z" fill="#8C1515"/>
<path d="M29.8575 2.14254H1.52478C0.820299 3.79536 -0.769295 10.2531 0.440963 17.6862C0.47709 17.894 0.513218 18.0927 0.549345 18.3004C1.84089 25.3903 5.74262 33.257 15.3795 38.64C15.4879 38.7032 15.5782 38.7574 15.6866 38.8206C15.795 38.7664 15.8853 38.7032 15.9937 38.64C36.0804 27.4225 31.2484 5.40301 29.8484 2.14254H29.8575Z" fill="#8C1515"/>
<path d="M15.3795 2.14254V17.6862H0.431931C0.468059 17.894 0.504186 18.0927 0.540314 18.3004H15.3705V38.64C15.4789 38.7032 15.5692 38.7574 15.6776 38.8206C15.786 38.7664 15.8763 38.7032 15.9847 38.64V2.14254H15.3705H15.3795Z" fill="white"/>
<path d="M7.94637 5.02368V5.4572C8.24442 5.22237 8.66891 5.03271 9.00309 4.96046C8.81342 5.80041 8.40699 6.01718 7.9554 6.08943L7.93734 6.79391C8.29861 6.49586 8.85858 6.10749 9.27404 6.01717C9.03922 7.08292 8.5244 7.47129 7.94637 7.55258V8.24802C8.40699 7.95901 9.1205 7.43517 9.64435 7.35388C9.3463 8.43769 8.67795 8.86218 7.94637 8.92541V9.56666C8.40699 9.26861 9.11147 8.80799 9.64435 8.72671C9.35533 9.77439 8.65085 10.4066 7.9554 10.506V11.0479C8.40699 10.7498 9.1205 10.2982 9.64435 10.2079C9.37339 11.3008 8.66891 11.8878 7.94637 11.9511V12.3936C8.49731 12.0685 9.39145 11.5085 10.0237 11.4091C9.66241 12.5833 8.81342 13.2245 7.94637 13.3058V13.8116C8.23539 13.5768 8.85858 13.3239 9.19276 13.2516C9.01212 14.0555 8.37087 14.3264 7.93734 14.4348V15.3831C8.03669 15.3831 8.13604 15.3651 8.23539 15.347C8.20829 15.0219 8.39796 14.6787 8.82245 14.4077C8.84052 14.6606 8.69601 15.0309 8.61472 15.2747C8.84955 15.2206 9.07534 15.1573 9.30114 15.058C9.17469 14.5793 9.33727 13.92 9.8882 13.36C9.98755 13.7303 9.88821 14.3354 9.84305 14.7419C10.0869 14.5974 10.3308 14.4348 10.5656 14.2271C10.3037 13.7755 10.3488 13.062 10.8636 12.3575C11.0172 12.7097 11.0262 13.3781 11.0262 13.7845C11.2339 13.5677 11.4597 13.3148 11.6584 13.0439C11.2972 12.6013 11.2791 12.1768 11.7126 11.3098C11.8662 11.662 12.0016 12.1859 12.0107 12.5923C12.2003 12.3484 12.3268 12.1498 12.4894 11.8607C12.399 11.6349 12.4442 11.4724 12.5526 11.3279C12.7152 11.1292 12.95 10.9576 13.1667 11.084C13.4648 11.2195 13.3203 11.5446 13.2119 11.7885C13.1396 11.9601 13.0132 12.0775 12.7874 12.0685C12.6339 12.3394 12.4171 12.6375 12.2274 12.8813C12.661 13.0168 12.968 13.1252 13.2661 13.4142C12.6248 13.6852 12.2455 13.6219 11.9204 13.351C11.7126 13.631 11.4146 13.929 11.1978 14.1548C11.6223 14.2813 11.8933 14.3987 12.2365 14.7509C11.532 15.0399 11.0172 14.9496 10.7101 14.6245C10.4662 14.8322 10.2314 15.049 9.98755 15.1935C10.403 15.4012 10.7011 15.627 10.954 15.9702C10.1592 16.1508 9.63531 15.925 9.40049 15.4825C9.16566 15.5818 8.93987 15.6541 8.70504 15.6992C8.93083 15.8979 9.08437 16.0424 9.20179 16.3044C8.65988 16.2863 8.34377 16.1599 8.26248 15.8257C8.1541 15.8347 8.04572 15.907 7.92831 15.907V16.9727L7.25996 16.6747V15.8889C7.19673 15.8889 7.03416 15.8257 6.97094 15.8167C6.87159 16.1328 6.63676 16.2592 6.11292 16.2682C6.23033 16.0063 6.29356 15.8257 6.55548 15.6902C6.31162 15.627 6.08582 15.5096 5.851 15.4012C5.64327 15.8979 5.17361 16.1057 4.33366 15.916C4.57752 15.5728 4.89363 15.2657 5.31812 15.1212C5.10136 14.9857 4.90266 14.8503 4.69493 14.6425C4.38785 14.9857 3.86401 15.1031 3.1505 14.8051C3.43951 14.507 3.73756 14.2722 4.18012 14.1819C3.95432 13.9561 3.74659 13.6942 3.53886 13.4232C3.22275 13.7032 2.73503 13.7935 2.08475 13.5226C2.3828 13.2245 2.71697 12.9084 3.13243 12.9084C3.00599 12.7278 2.88858 12.5201 2.7531 12.3033C2.61762 12.3033 2.49118 12.3033 2.3557 12.1227C2.20216 11.924 2.05765 11.4995 2.31054 11.364C2.47311 11.2285 2.84342 11.4272 2.96083 11.653C3.06921 11.8607 3.03308 11.9781 2.98792 12.1227C3.1234 12.3304 3.26791 12.5291 3.40339 12.7097C3.31307 12.1227 3.47564 11.6349 3.62918 11.2827C4.15303 12.0143 4.06271 12.6465 3.76466 13.0981C3.98142 13.369 4.17109 13.5677 4.38785 13.7935C4.32463 13.3781 4.37882 12.7549 4.52333 12.4117C5.02008 13.0891 5.0833 13.7845 4.8575 14.2451C5.06523 14.4167 5.2549 14.5883 5.46263 14.7148C5.35425 14.3264 5.30006 13.6761 5.39941 13.3058C5.95938 13.8748 6.13098 14.507 5.99551 14.9948C6.23033 15.1031 6.46516 15.1935 6.69999 15.2477C6.59161 15.0128 6.48322 14.6245 6.50129 14.3716C6.91675 14.6335 7.02513 14.9496 7.00707 15.2657C7.07029 15.2657 7.25093 15.356 7.31415 15.356L7.29608 14.4167C6.88965 14.3083 6.26646 14.0735 6.06776 13.2787C6.45613 13.369 6.94384 13.4594 7.29608 13.7845V13.2878C6.46516 13.2155 5.62521 12.6284 5.21878 11.4543C5.94132 11.5808 6.63676 11.924 7.29608 12.3575V11.924C6.57354 11.8698 5.88713 11.2014 5.58005 10.244C6.18518 10.3615 6.74514 10.6324 7.29608 11.0298V10.4789C6.6187 10.4066 5.92325 9.82858 5.58005 8.76284C6.18518 8.88025 6.74514 9.13314 7.29608 9.53053V8.91637C6.59161 8.86218 5.93229 8.47382 5.58005 7.38097C6.18518 7.49839 6.74514 7.80546 7.29608 8.20286V7.52548C6.74514 7.46226 6.2213 7.11905 5.95035 6.04427C6.42903 6.16168 6.85353 6.36038 7.29608 6.75778V6.0533C6.87159 5.98105 6.47419 5.80944 6.26646 4.97852C6.55548 5.04174 6.90772 5.05981 7.30512 5.41205V4.98755C6.97997 4.50887 7.04319 4.30114 7.08835 3.9218C7.12448 3.57859 7.25093 3.31667 7.63026 3.30764C8.00056 3.3257 8.12701 3.57859 8.16314 3.9218C8.19926 4.30114 8.27151 4.50887 7.94637 4.98755" fill="white"/>
<path d="M23.7339 13.7755C23.9507 11.093 24.3481 10.3615 25.0074 9.81052L25.1068 9.72924L24.8358 7.94094L24.61 7.97707C24.312 8.02223 24.032 8.25705 23.8152 8.50091V7.18227L21.8192 5.99911V6.99261C21.6656 6.8481 21.5302 6.73068 21.476 6.69456C21.2773 6.55005 21.0966 6.4778 20.907 6.4778C20.7986 6.4778 20.7083 6.50489 20.618 6.52295C20.4734 6.55908 20.3831 6.58618 20.1754 6.50489C19.2722 6.32425 18.5677 6.52295 18.1794 7.07389C17.8181 7.5887 17.7549 8.3835 18.0258 9.14217C18.1974 9.62988 18.5136 10.1989 18.9651 10.813C19.1458 11.0659 20.7354 12.7368 21.0876 13.0981C21.3224 13.3329 21.5663 13.5677 21.8192 13.8026V14.4077L21.4218 14.1367L20.8889 15.3651L21.0515 15.4644C21.4218 15.6902 21.8011 16.3315 22.0721 19.6823C21.1147 20.0797 19.8864 21.2177 19.8503 22.3828C19.8322 22.9427 20.0941 23.7195 21.476 24.2614C21.7379 24.3607 22.0269 24.4781 22.3159 24.5955C22.334 25.2368 22.3521 25.9142 22.3611 26.6458C22.0901 26.7722 21.6295 27.0522 21.5392 27.4586C21.4579 27.8199 21.6837 28.1721 22.1985 28.5063C22.2617 28.5424 22.325 28.5695 22.3882 28.5966C22.3882 28.7953 22.3882 29.0121 22.3882 29.2288C22.1714 29.3372 22.054 29.4095 21.8914 29.6082C21.8011 29.7166 21.7108 29.8249 21.765 29.9333C21.774 29.9604 21.8192 30.0236 21.9276 30.0236C21.9998 30.0236 22.0992 29.9965 22.2979 29.9153C22.3521 29.8972 22.3882 29.8791 22.4243 29.8701C22.5237 30.114 22.7404 30.2675 22.9933 30.2675C23.2643 30.2675 23.481 30.0869 23.5352 29.8249V29.7708C23.5352 29.6804 23.5352 29.5901 23.5352 29.4998C23.7249 29.3734 23.8423 29.1747 23.8513 28.9398C23.8604 28.6689 23.7339 28.407 23.5262 28.2083C23.5262 27.9012 23.5262 27.6212 23.5262 27.3231C24.4113 27.1154 25.3145 26.5464 25.4048 25.7787C25.459 25.3 25.2061 24.6046 23.6888 23.9994C23.6255 23.9724 23.5714 23.9543 23.5172 23.9272C23.5172 22.6447 23.5172 21.4976 23.5262 20.45C25.0977 19.6552 26.1635 18.9055 26.2989 17.912C26.4435 16.8734 25.5854 15.6451 23.7339 13.8026V13.7755ZM21.3676 11.5537C18.92 9.33183 18.8116 8.32028 18.9651 7.91385C19.1458 7.44419 19.778 7.42613 19.9044 7.45323C19.9857 7.47129 19.9857 7.48936 20.0128 7.57967C20.049 7.73321 20.1122 7.97707 20.5818 8.13061C21.1057 8.30222 21.5121 8.40156 21.8102 8.42866V11.9601C21.6656 11.8246 21.5211 11.6891 21.3676 11.5537ZM24.3029 25.8148C24.3029 25.9142 24.1765 26.1038 23.5262 26.3296C23.5262 25.9232 23.5262 25.5168 23.5262 25.1284C23.9958 25.3723 24.321 25.6161 24.312 25.8239L24.3029 25.8148ZM23.3456 7.4442V8.43769L22.7946 8.29319L22.5056 8.14867C22.5417 7.96804 22.4333 7.73321 22.2708 7.51645V6.81197L23.3546 7.45323L23.3456 7.4442ZM21.0966 22.4099C21.0605 22.1028 21.3857 21.6963 22.1714 21.1002C22.2076 21.7686 22.2437 22.5182 22.2708 23.3672C21.5844 23.0421 21.1328 22.726 21.0876 22.4099H21.0966ZM22.7766 24.7762C22.8759 24.8213 22.9662 24.8575 23.0565 24.9026C23.0565 25.8419 23.0565 26.8354 23.0746 27.8921C22.9933 27.847 22.903 27.7928 22.8398 27.7115C22.8217 26.6367 22.8036 25.6613 22.7766 24.7671V24.7762ZM22.8578 29.6985C22.8578 29.3553 22.8578 29.0301 22.8488 28.705C22.9482 28.7321 23.0294 28.7682 23.0836 28.8224C23.0836 29.1205 23.0836 29.4095 23.0836 29.7166C23.0565 29.8069 22.9301 29.834 22.8578 29.6985ZM23.0565 23.7104C22.9482 23.6653 22.8398 23.6201 22.7404 23.575C22.5056 16.5663 21.9727 15.5638 21.4669 15.1754L21.6205 14.8141L22.2798 15.2567V14.2C22.3611 14.2722 22.4333 14.3445 22.5146 14.4167C22.7495 14.6245 22.9753 14.8322 23.201 15.0309C23.1017 17.0269 23.0565 19.7997 23.0656 23.7104H23.0565ZM23.3094 13.36C22.9933 13.0529 22.6411 12.7278 22.2708 12.3755V8.39253C22.2708 8.39253 22.343 8.3564 22.3701 8.33834L22.6591 8.47382L23.0475 9.08798L23.1649 9.05185L23.1378 8.66349L23.3456 8.61832V9.22346L23.7791 9.32281C23.8875 9.10605 24.1674 8.69962 24.4474 8.51898L24.601 9.53957C23.9417 10.1266 23.5352 10.9034 23.3004 13.36H23.3094ZM24.9442 17.7043C24.8629 18.2101 24.3932 18.6526 23.5352 19.0681C23.5533 17.6411 23.5804 16.4489 23.6255 15.4464C24.4565 16.2592 25.0526 17.0179 24.9442 17.7043Z" fill="white"/>
<path d="M20.7534 7.53451C20.7534 7.53451 20.6721 7.50742 20.627 7.50742C20.5547 7.50742 20.4915 7.53451 20.4644 7.5887C20.4193 7.67902 20.4644 7.79643 20.5818 7.85966C20.627 7.87772 20.6721 7.89579 20.7083 7.89579C20.7805 7.89579 20.8347 7.85966 20.8708 7.80547C20.916 7.71515 20.8708 7.59773 20.7534 7.53451Z" fill="#8C1515"/>
<path d="M21.1508 6.83907C21.1057 6.79391 21.0424 6.76681 20.9792 6.76681C20.9341 6.76681 20.8889 6.78487 20.8618 6.81197C20.8347 6.83906 20.8167 6.88423 20.8167 6.92939C20.8167 6.99261 20.8528 7.05583 20.8979 7.10099C20.9431 7.14615 21.0063 7.17324 21.0695 7.17324C21.1147 7.17324 21.1599 7.15518 21.187 7.11905C21.2141 7.09196 21.2321 7.0468 21.2321 7.00164C21.2321 6.93842 21.196 6.88423 21.1508 6.83004V6.83907Z" fill="#8C1515"/>
<path d="M11.7758 24.2523V20.9196H5.851V26.8354H7.67542V30.1772H13.5912V24.2614H11.7668L11.7758 24.2523ZM10.0237 21.6692H10.9901V24.144H10.0237V21.6692ZM11.0172 26.8354V27.5851H10.2675V26.8354H11.0172ZM6.74514 21.6692H9.21985V22.6356H6.74514V21.6692ZM7.68445 26.0768H6.71805V23.602H7.68445V26.0768ZM8.43409 23.4937H9.18372V24.2433H8.43409V23.4937ZM8.51537 25.1104H10.9901V26.0768H8.51537V25.1104ZM9.5179 29.3101H8.5515V26.8354H9.5179V29.3101ZM12.7152 29.283H10.2404V28.3166H12.7152V29.283ZM12.7422 27.558H11.7758V25.0833H12.7422V27.558Z" fill="white"/>
</svg>
