<svg width="140" height="29" viewBox="0 0 140 29" fill="none" xmlns="http://www.w3.org/2000/svg">
<path d="M71.8741 16.7148C71.8741 23.5613 77.555 28.5742 84.7713 28.5742C91.9876 28.5742 97.6776 23.5703 97.6776 16.7148V0.980656H90.6871V15.9019C90.6871 19.5961 88.1311 22.089 84.7442 22.089C81.3573 22.089 78.8014 19.6052 78.8014 15.9019V0.980656H71.8109L71.856 16.7148H71.865H71.8741ZM116.337 7.27614H124.673V28.0594H131.664V7.27614H140V0.971622H116.346V7.27614H116.337ZM111.812 0.971622H104.822V28.0684H111.812V0.971622ZM43.6411 7.27614H51.9773V28.0594H58.9678V7.27614H67.304V0.971622H43.6501V7.27614H43.6411ZM6.99052 0.971622H0V28.0684H6.99052V0.971622ZM39.9652 12.289C39.9652 5.4426 34.2752 0.429688 27.0589 0.429688C19.8426 0.429688 14.1617 5.43356 14.1617 12.289V28.0684H21.1522V13.1381C21.1522 9.44388 23.7081 6.95098 27.095 6.95098C30.4819 6.95098 33.0379 9.43485 33.0379 13.1381V28.0594H40.0284L39.9832 12.28H39.9742L39.9652 12.289Z" fill="#466BB2"/>
</svg>
