<svg width="140" height="57" viewBox="0 0 140 57" fill="none" xmlns="http://www.w3.org/2000/svg">
<path fill-rule="evenodd" clip-rule="evenodd" d="M20.4701 49.0421C20.3436 49.4034 20.0636 49.6473 19.5397 49.6473H16.5857C16.0979 49.6473 15.854 49.5299 15.7366 49.0421L12.9453 38.6446C12.6652 37.5967 12.5388 36.3592 12.3762 35.1487C12.2587 36.3953 12.0961 37.6419 11.8071 38.6446L8.93445 49.0421C8.85315 49.4034 8.52795 49.6473 8.00401 49.6473H5.00493C4.51712 49.6473 4.27322 49.5299 4.15579 49.0421L0.0275258 34.0647C-0.0989418 33.5407 0.22626 33.2607 0.67793 33.2607H2.58398C3.10791 33.2607 3.39698 33.4233 3.51442 33.9473L6.107 44.6247C6.38704 45.8262 6.46834 47.1179 6.5948 48.2833C6.79354 47.1631 6.95614 45.8352 7.28134 44.6699L10.154 33.9111C10.2804 33.4685 10.6418 33.2697 11.1296 33.2697H13.4783C13.9661 33.2697 14.3726 33.5136 14.49 33.9563L17.4078 44.6789C17.733 45.8442 17.8956 47.127 18.0582 48.2923C18.2208 47.1721 18.3834 45.8442 18.6273 44.6789L21.0211 33.9202C21.1024 33.4775 21.5089 33.2788 21.9967 33.2788H23.7763C24.219 33.2788 24.5442 33.5588 24.4267 34.0828L20.4972 49.0601L20.4701 49.0421ZM36.3869 49.8099C31.6444 49.8099 28.5731 46.594 28.5731 41.3366C28.5731 36.0791 31.6534 32.9807 36.3869 32.9807C41.1204 32.9807 44.1195 36.1514 44.1195 41.3366C44.1195 46.5217 41.1204 49.8099 36.3869 49.8099ZM36.3056 35.2661C33.5143 35.2661 31.9335 37.2715 31.9335 41.3727C31.9335 45.4739 33.4692 47.5967 36.3056 47.5967C39.1421 47.5967 40.6778 45.5913 40.6778 41.3727C40.6326 37.2806 39.097 35.2661 36.3056 35.2661ZM59.3047 35.5552C59.1872 36.034 58.8169 36.314 58.1303 36.1604C57.5612 36.043 56.6308 35.7991 55.8629 35.7991C54.6886 35.7991 53.1078 37.127 53.1078 40.099V48.9698C53.1078 49.3311 52.7013 49.6563 52.2586 49.6563H50.7229C50.2803 49.6563 49.8738 49.3311 49.8738 48.9698V33.9563C49.8738 33.5588 50.2803 33.2697 50.7229 33.2697H51.6534C52.0599 33.2697 52.3851 33.4324 52.5025 33.7937L53.0716 35.6365C54.2098 34.0286 55.7455 33.0258 57.6516 33.0258C58.9433 33.0258 59.9641 33.5498 59.7563 34.2273L59.3137 35.5552H59.3047ZM96.4861 49.4847H95.637C95.0318 49.4847 94.7066 49.286 94.5801 48.7982L94.2549 47.4341C93.0805 49.0782 91.6262 49.7647 89.4762 49.7647C85.2667 49.7647 83.0806 46.9102 83.0806 41.4088C83.0806 38.0394 83.6497 36.3863 85.0228 34.8235C86.0797 33.6221 87.8141 32.9716 89.6027 32.9716C91.59 32.9716 93.0896 33.7756 94.1826 35.3836V26.1514C94.1826 25.754 94.5891 25.4649 95.0318 25.4649H96.4861C96.9288 25.4649 97.3353 25.7449 97.3353 26.1514V48.7982C97.3353 49.1956 96.9288 49.4847 96.4861 49.4847ZM90.2892 35.23C89.0697 35.23 88.1393 35.6726 87.5792 36.5579C87.0101 37.4432 86.5675 38.8885 86.5675 41.3727C86.5675 45.7087 87.7057 47.5154 90.2531 47.5154C92.8005 47.5154 94.2187 45.5461 94.2187 41.454C94.2639 37.398 92.8005 35.23 90.2892 35.23ZM77.9767 49.6473H75.5015C75.095 49.6473 74.7698 49.4034 74.5259 49.0872L68.2477 41.174V48.9608C68.2477 49.3221 67.8412 49.6473 67.3986 49.6473H65.9442C65.5016 49.6473 65.0951 49.3221 65.0951 48.9608V26.2327C65.0951 25.8353 65.5016 25.5462 65.9442 25.5462H67.3986C67.8412 25.5462 68.2477 25.8262 68.2477 26.2327V40.8488L74.6885 33.7395C74.8873 33.4594 75.2125 33.2155 75.7455 33.2155H77.9315C78.5006 33.2155 78.6994 33.6943 78.3742 34.0195L71.4907 40.8488L78.3742 48.762C78.6994 49.1595 78.5368 49.6473 77.9677 49.6473H77.9767ZM121.319 33.9473C121.156 33.5859 121.563 33.2607 122.051 33.2607H123.957C124.481 33.2607 124.851 33.5046 125.005 33.9473L128.808 43.8659C128.97 44.3447 129.133 45.0312 129.25 45.5913C129.368 45.0674 129.657 44.1008 129.937 43.2607L132.972 33.9473C133.098 33.5046 133.496 33.3059 134.029 33.3059H135.89C136.378 33.3059 136.739 33.6311 136.622 33.9924L130.307 51.9779C129.657 53.8298 128.401 55.2751 126.26 56.07L125.366 56.3952C125.005 56.5127 124.472 56.4314 124.228 56.1152L123.622 55.1938C123.46 54.9138 123.659 54.3898 124.065 54.2724L124.715 54.0285C126.332 53.4684 127.507 51.6979 127.995 49.4937L121.31 33.9563L121.319 33.9473ZM110.416 32.9807C115.158 32.9807 117.579 36.1153 117.543 41.3366V48.8433C117.543 49.2047 117.136 49.5299 116.694 49.5299H115.845C115.239 49.5299 114.914 49.3311 114.788 48.8433L114.463 47.4341C113.288 49.1234 112.069 49.7647 110.172 49.7647C105.754 49.7647 102.927 46.6301 102.927 41.3727C102.927 36.1153 105.682 32.9807 110.416 32.9807ZM110.334 47.4793C113.126 47.4793 114.463 45.5552 114.463 41.3366C114.463 37.118 113.126 35.23 110.334 35.23C107.543 35.23 106.324 37.2354 106.324 41.3366C106.324 45.4377 107.543 47.4793 110.334 47.4793ZM138.654 45.4197C138.925 45.5281 139.169 45.6997 139.377 45.9075C139.575 46.1152 139.738 46.3501 139.837 46.6121C139.946 46.8831 140 47.1541 140 47.4522C140 47.7503 139.946 48.0303 139.828 48.3013C139.72 48.5723 139.557 48.7982 139.35 49.0059C139.133 49.2137 138.889 49.3673 138.627 49.4847C138.356 49.5931 138.076 49.6473 137.787 49.6473C137.498 49.6473 137.209 49.5841 136.938 49.4757C136.667 49.3582 136.423 49.1866 136.215 48.9788C136.007 48.7711 135.854 48.5362 135.745 48.2742C135.637 48.0032 135.574 47.7322 135.574 47.4431C135.574 47.2444 135.601 47.0457 135.655 46.856C135.709 46.6663 135.79 46.4856 135.899 46.3049C136.098 45.9707 136.36 45.7178 136.694 45.5281C137.028 45.3384 137.389 45.248 137.787 45.248C138.094 45.248 138.383 45.3022 138.654 45.4197ZM137.091 45.7539C136.874 45.8352 136.676 45.9707 136.504 46.1423C136.323 46.314 136.188 46.5217 136.089 46.7476C135.989 46.9734 135.944 47.2083 135.944 47.4522C135.944 47.6961 135.989 47.931 136.079 48.1478C136.17 48.3646 136.305 48.5633 136.477 48.7349C136.649 48.9156 136.856 49.0511 137.082 49.1505C137.308 49.2498 137.543 49.295 137.787 49.295C138.031 49.295 138.257 49.2498 138.482 49.1595C138.708 49.0692 138.916 48.9337 139.097 48.762C139.268 48.5994 139.404 48.4007 139.494 48.1839C139.584 47.9671 139.639 47.7322 139.639 47.4973C139.639 47.2354 139.594 46.9915 139.503 46.7747C139.422 46.5579 139.286 46.3591 139.115 46.1785C138.934 45.9978 138.735 45.8623 138.509 45.7629C138.284 45.6726 138.049 45.6274 137.787 45.6274C137.525 45.6274 137.299 45.6726 137.082 45.7629L137.091 45.7539ZM137.841 46.1875C138.184 46.1875 138.455 46.2507 138.627 46.3682C138.808 46.4856 138.889 46.6572 138.889 46.8921C138.889 47.0547 138.844 47.1902 138.744 47.2986C138.645 47.416 138.509 47.4973 138.347 47.5335L138.898 48.6265H138.229L137.76 47.6328H137.462V48.6265H136.865V46.1875H137.841ZM137.471 47.2715H137.769C137.94 47.2715 138.076 47.2444 138.148 47.1902C138.229 47.136 138.266 47.0547 138.266 46.9282C138.266 46.8018 138.22 46.7114 138.139 46.6572C138.049 46.594 137.913 46.5669 137.733 46.5669H137.471V47.2715Z" fill="#005CB9"/>
<path fill-rule="evenodd" clip-rule="evenodd" d="M40.5152 26.1966C45.8991 13.6311 58.4555 4.83261 73.0806 4.83261C87.7057 4.83261 100.253 13.6221 105.646 26.1966C105.971 27.0367 106.784 27.6419 107.751 27.6419C108.961 27.6419 109.982 26.6392 109.982 25.4378C109.982 25.1578 109.937 24.8777 109.819 24.5977C103.74 10.4604 89.5665 0.550781 73.0896 0.550781C56.6127 0.550781 42.4303 10.4695 36.3598 24.5977C36.2424 24.8416 36.1972 25.1578 36.1972 25.4378C36.1972 26.6392 37.209 27.6419 38.4285 27.6419C39.4041 27.6419 40.2081 27.0367 40.5333 26.1966H40.5152Z" fill="#F38B00"/>
</svg>
