<svg xmlns="http://www.w3.org/2000/svg" xmlns:xlink="http://www.w3.org/1999/xlink" width="800" zoomAndPan="magnify" viewBox="0 0 600 299.999988" height="400" preserveAspectRatio="xMidYMid meet" version="1.0"><defs><clipPath id="4c4e5a20b7"><path d="M 125.171875 142 L 474.671875 142 L 474.671875 219.570312 L 125.171875 219.570312 Z M 125.171875 142 " clip-rule="nonzero"/></clipPath><clipPath id="e783b3ad47"><path d="M 215 80.070312 L 400 80.070312 L 400 148 L 215 148 Z M 215 80.070312 " clip-rule="nonzero"/></clipPath></defs><g clip-path="url(#4c4e5a20b7)"><path fill="#231f20" d="M 176.273438 200.992188 C 175.957031 201.894531 175.257812 202.5 173.949219 202.5 L 166.578125 202.5 C 165.359375 202.5 164.75 202.210938 164.457031 200.992188 L 157.488281 175.089844 C 156.789062 172.480469 156.472656 169.398438 156.066406 166.382812 C 155.773438 169.488281 155.367188 172.59375 154.648438 175.089844 L 147.476562 200.992188 C 147.273438 201.894531 146.460938 202.5 145.152344 202.5 L 137.664062 202.5 C 136.449219 202.5 135.839844 202.210938 135.546875 200.992188 L 125.238281 163.683594 C 124.925781 162.375 125.734375 161.679688 126.863281 161.679688 L 131.621094 161.679688 C 132.929688 161.679688 133.652344 162.082031 133.945312 163.390625 L 140.417969 189.988281 C 141.117188 192.980469 141.320312 196.199219 141.636719 199.105469 C 142.132812 196.3125 142.535156 193.003906 143.347656 190.101562 L 150.519531 163.300781 C 150.835938 162.195312 151.738281 161.703125 152.957031 161.703125 L 158.820312 161.703125 C 160.035156 161.703125 161.050781 162.308594 161.34375 163.410156 L 168.628906 190.125 C 169.441406 193.027344 169.847656 196.222656 170.253906 199.125 C 170.660156 196.335938 171.0625 193.027344 171.671875 190.125 L 177.648438 163.320312 C 177.851562 162.21875 178.867188 161.722656 180.085938 161.722656 L 184.527344 161.722656 C 185.632812 161.722656 186.445312 162.421875 186.152344 163.726562 L 176.339844 201.039062 Z M 216.007812 202.90625 C 204.167969 202.90625 196.503906 194.894531 196.503906 181.796875 C 196.503906 168.699219 204.191406 160.980469 216.007812 160.980469 C 227.824219 160.980469 235.3125 168.878906 235.3125 181.796875 C 235.3125 194.714844 227.824219 202.90625 216.007812 202.90625 Z M 215.804688 166.675781 C 208.835938 166.675781 204.890625 171.671875 204.890625 181.886719 C 204.890625 192.105469 208.726562 197.394531 215.804688 197.394531 C 222.886719 197.394531 226.722656 192.398438 226.722656 181.886719 C 226.609375 171.691406 222.773438 166.675781 215.804688 166.675781 Z M 273.222656 167.394531 C 272.929688 168.585938 272.003906 169.285156 270.289062 168.902344 C 268.871094 168.609375 266.546875 168.003906 264.628906 168.003906 C 261.699219 168.003906 257.75 171.3125 257.75 178.714844 L 257.75 200.8125 C 257.75 201.714844 256.738281 202.523438 255.632812 202.523438 L 251.796875 202.523438 C 250.691406 202.523438 249.679688 201.714844 249.679688 200.8125 L 249.679688 163.410156 C 249.679688 162.421875 250.691406 161.703125 251.796875 161.703125 L 254.121094 161.703125 C 255.136719 161.703125 255.949219 162.105469 256.242188 163.007812 L 257.660156 167.597656 C 260.503906 163.589844 264.335938 161.09375 269.09375 161.09375 C 272.320312 161.09375 274.867188 162.398438 274.347656 164.085938 L 273.246094 167.394531 Z M 366.042969 202.097656 L 363.921875 202.097656 C 362.410156 202.097656 361.601562 201.601562 361.285156 200.386719 L 360.472656 196.988281 C 357.539062 201.085938 353.910156 202.792969 348.542969 202.792969 C 338.035156 202.792969 332.578125 195.683594 332.578125 181.976562 C 332.578125 173.582031 333.996094 169.464844 337.425781 165.570312 C 340.0625 162.578125 344.394531 160.957031 348.859375 160.957031 C 353.820312 160.957031 357.5625 162.960938 360.292969 166.96875 L 360.292969 143.96875 C 360.292969 142.976562 361.308594 142.257812 362.410156 142.257812 L 366.042969 142.257812 C 367.148438 142.257812 368.164062 142.957031 368.164062 143.96875 L 368.164062 200.386719 C 368.164062 201.375 367.148438 202.097656 366.042969 202.097656 Z M 350.574219 166.585938 C 347.527344 166.585938 345.207031 167.6875 343.808594 169.894531 C 342.386719 172.097656 341.28125 175.699219 341.28125 181.886719 C 341.28125 192.691406 344.121094 197.191406 350.480469 197.191406 C 356.84375 197.191406 360.382812 192.285156 360.382812 182.089844 C 360.496094 171.984375 356.84375 166.585938 350.574219 166.585938 Z M 319.835938 202.5 L 313.65625 202.5 C 312.640625 202.5 311.828125 201.894531 311.21875 201.105469 L 295.546875 181.394531 L 295.546875 200.792969 C 295.546875 201.691406 294.53125 202.5 293.425781 202.5 L 289.796875 202.5 C 288.691406 202.5 287.675781 201.691406 287.675781 200.792969 L 287.675781 144.171875 C 287.675781 143.179688 288.691406 142.460938 289.796875 142.460938 L 293.425781 142.460938 C 294.53125 142.460938 295.546875 143.15625 295.546875 144.171875 L 295.546875 180.582031 L 311.625 162.871094 C 312.121094 162.175781 312.933594 161.566406 314.265625 161.566406 L 319.722656 161.566406 C 321.144531 161.566406 321.640625 162.757812 320.828125 163.570312 L 303.644531 180.582031 L 320.828125 200.296875 C 321.640625 201.285156 321.234375 202.5 319.8125 202.5 Z M 428.035156 163.390625 C 427.628906 162.488281 428.644531 161.679688 429.863281 161.679688 L 434.621094 161.679688 C 435.929688 161.679688 436.855469 162.285156 437.238281 163.390625 L 446.730469 188.097656 C 447.136719 189.292969 447.542969 191.003906 447.835938 192.398438 C 448.128906 191.09375 448.851562 188.683594 449.550781 186.589844 L 457.128906 163.390625 C 457.441406 162.285156 458.433594 161.792969 459.765625 161.792969 L 464.410156 161.792969 C 465.628906 161.792969 466.53125 162.601562 466.238281 163.5 L 450.476562 208.308594 C 448.851562 212.921875 445.714844 216.523438 440.371094 218.503906 L 438.140625 219.3125 C 437.238281 219.605469 435.90625 219.402344 435.296875 218.613281 L 433.785156 216.320312 C 433.382812 215.621094 433.878906 214.316406 434.890625 214.023438 L 436.515625 213.417969 C 440.550781 212.019531 443.484375 207.609375 444.703125 202.121094 L 428.015625 163.410156 Z M 400.816406 160.980469 C 412.65625 160.980469 418.699219 168.789062 418.609375 181.796875 L 418.609375 200.5 C 418.609375 201.398438 417.59375 202.210938 416.488281 202.210938 L 414.371094 202.210938 C 412.859375 202.210938 412.046875 201.714844 411.730469 200.5 L 410.917969 196.988281 C 407.988281 201.195312 404.945312 202.792969 400.207031 202.792969 C 389.179688 202.792969 382.121094 194.984375 382.121094 181.886719 C 382.121094 168.789062 389 160.980469 400.816406 160.980469 Z M 400.613281 197.101562 C 407.582031 197.101562 410.917969 192.308594 410.917969 181.796875 C 410.917969 171.289062 407.582031 166.585938 400.613281 166.585938 C 393.644531 166.585938 390.601562 171.582031 390.601562 181.796875 C 390.601562 192.015625 393.644531 197.101562 400.613281 197.101562 Z M 471.3125 191.96875 C 471.988281 192.238281 472.597656 192.667969 473.117188 193.183594 C 473.613281 193.703125 474.019531 194.289062 474.265625 194.941406 C 474.535156 195.617188 474.671875 196.289062 474.671875 197.035156 C 474.671875 197.777344 474.535156 198.472656 474.242188 199.148438 C 473.972656 199.824219 473.566406 200.386719 473.046875 200.902344 C 472.507812 201.421875 471.898438 201.804688 471.246094 202.097656 C 470.566406 202.367188 469.867188 202.5 469.148438 202.5 C 468.425781 202.5 467.703125 202.34375 467.027344 202.074219 C 466.351562 201.78125 465.742188 201.355469 465.222656 200.835938 C 464.703125 200.320312 464.320312 199.734375 464.050781 199.082031 C 463.78125 198.40625 463.621094 197.730469 463.621094 197.011719 C 463.621094 196.515625 463.691406 196.019531 463.824219 195.546875 C 463.960938 195.074219 464.164062 194.625 464.433594 194.175781 C 464.929688 193.34375 465.585938 192.710938 466.417969 192.238281 C 467.253906 191.765625 468.15625 191.542969 469.148438 191.542969 C 469.914062 191.542969 470.636719 191.675781 471.3125 191.96875 Z M 467.410156 192.800781 C 466.871094 193.003906 466.375 193.34375 465.945312 193.769531 C 465.492188 194.199219 465.15625 194.714844 464.90625 195.277344 C 464.660156 195.839844 464.546875 196.425781 464.546875 197.035156 C 464.546875 197.640625 464.660156 198.226562 464.886719 198.765625 C 465.109375 199.304688 465.449219 199.800781 465.878906 200.230469 C 466.304688 200.679688 466.824219 201.015625 467.386719 201.265625 C 467.953125 201.511719 468.539062 201.625 469.148438 201.625 C 469.757812 201.625 470.320312 201.511719 470.882812 201.285156 C 471.449219 201.0625 471.964844 200.722656 472.417969 200.296875 C 472.84375 199.890625 473.183594 199.394531 473.410156 198.855469 C 473.636719 198.316406 473.769531 197.730469 473.769531 197.144531 C 473.769531 196.492188 473.65625 195.886719 473.433594 195.34375 C 473.230469 194.804688 472.890625 194.308594 472.460938 193.859375 C 472.011719 193.410156 471.515625 193.074219 470.953125 192.824219 C 470.386719 192.601562 469.800781 192.488281 469.148438 192.488281 C 468.492188 192.488281 467.929688 192.601562 467.386719 192.824219 Z M 469.28125 193.882812 C 470.140625 193.882812 470.816406 194.039062 471.246094 194.332031 C 471.695312 194.625 471.898438 195.054688 471.898438 195.636719 C 471.898438 196.042969 471.785156 196.378906 471.539062 196.652344 C 471.289062 196.941406 470.953125 197.144531 470.546875 197.234375 L 471.921875 199.957031 L 470.253906 199.957031 L 469.078125 197.484375 L 468.335938 197.484375 L 468.335938 199.957031 L 466.847656 199.957031 L 466.847656 193.882812 Z M 468.359375 196.582031 L 469.101562 196.582031 C 469.53125 196.582031 469.867188 196.515625 470.050781 196.378906 C 470.253906 196.246094 470.34375 196.042969 470.34375 195.726562 C 470.34375 195.414062 470.230469 195.1875 470.027344 195.054688 C 469.800781 194.894531 469.464844 194.828125 469.011719 194.828125 L 468.359375 194.828125 Z M 468.359375 196.582031 " fill-opacity="1" fill-rule="evenodd"/></g><g clip-path="url(#e783b3ad47)"><path fill="#231f20" d="M 226.316406 144.082031 C 239.753906 112.777344 271.101562 90.855469 307.613281 90.855469 C 344.121094 90.855469 375.445312 112.753906 388.910156 144.082031 C 389.722656 146.171875 391.75 147.679688 394.164062 147.679688 C 397.1875 147.679688 399.734375 145.183594 399.734375 142.191406 C 399.734375 141.492188 399.621094 140.792969 399.328125 140.097656 C 384.152344 104.878906 348.769531 80.191406 307.636719 80.191406 C 266.5 80.191406 231.097656 104.898438 215.941406 140.097656 C 215.648438 140.703125 215.535156 141.492188 215.535156 142.191406 C 215.535156 145.183594 218.0625 147.679688 221.105469 147.679688 C 223.542969 147.679688 225.546875 146.171875 226.359375 144.082031 Z M 226.316406 144.082031 " fill-opacity="1" fill-rule="evenodd"/></g></svg>